<?xml version="1.0" encoding="UTF-8"?>
<svg xmlns="http://www.w3.org/2000/svg" xmlns:xlink="http://www.w3.org/1999/xlink" width="375pt" height="374.999991pt" viewBox="0 0 375 374.999991" version="1.2">
<defs>
<clipPath id="clip1">
  <path d="M 58.710938 183.195312 L 187.984375 183.195312 L 187.984375 312.46875 L 58.710938 312.46875 Z M 58.710938 183.195312 "/>
</clipPath>
</defs>
<g id="surface1">
<path style=" stroke:none;fill-rule:nonzero;fill:rgb(0%,0%,0%);fill-opacity:1;" d="M 199.316406 337.492188 L 333.1875 337.492188 L 333.1875 52.457031 L 309.207031 52.457031 L 309.207031 313.535156 L 147.757812 313.535156 L 147.757812 337.492188 Z M 199.316406 337.492188 "/>
<path style=" stroke:none;fill-rule:nonzero;fill:rgb(0%,0%,0%);fill-opacity:1;" d="M 281.695312 37.5 L 41.816406 37.5 L 41.816406 195.382812 L 65.761719 195.382812 L 65.761719 61.484375 L 333.183594 61.484375 L 333.183594 37.5 Z M 281.695312 37.5 "/>
<g clip-path="url(#clip1)" clip-rule="nonzero">
<path style=" stroke:none;fill-rule:nonzero;fill:rgb(0%,0%,0%);fill-opacity:1;" d="M 181.382812 237.941406 L 133.734375 237.941406 L 133.734375 190.394531 C 133.734375 186.441406 130.589844 183.195312 126.636719 183.195312 L 120.554688 183.195312 C 116.601562 183.195312 113.457031 186.441406 113.457031 190.394531 L 113.457031 237.941406 L 65.808594 237.941406 C 61.855469 237.941406 58.710938 241.085938 58.710938 245.039062 L 58.710938 251.121094 C 58.710938 255.074219 61.855469 258.21875 65.808594 258.21875 L 113.457031 258.21875 L 113.457031 305.96875 C 113.457031 309.925781 116.601562 312.964844 120.554688 312.964844 L 126.636719 312.964844 C 130.589844 312.964844 133.734375 309.824219 133.734375 305.96875 L 133.734375 258.21875 L 181.382812 258.21875 C 185.339844 258.21875 188.480469 255.074219 188.480469 251.121094 L 188.480469 245.039062 C 188.480469 241.085938 185.339844 237.941406 181.382812 237.941406 Z M 181.382812 237.941406 "/>
</g>
</g>
</svg>
