<?xml version="1.0" encoding="UTF-8"?>
<svg xmlns="http://www.w3.org/2000/svg" xmlns:xlink="http://www.w3.org/1999/xlink" width="375pt" height="374.999991pt" viewBox="0 0 375 374.999991" version="1.2">
<defs>
<clipPath id="clip1">
  <path d="M 37.5 60.9375 L 337.5 60.9375 L 337.5 210.9375 L 37.5 210.9375 Z M 37.5 60.9375 "/>
</clipPath>
</defs>
<g id="surface1">
<g clip-path="url(#clip1)" clip-rule="nonzero">
<path style=" stroke:none;fill-rule:nonzero;fill:rgb(0%,0%,0%);fill-opacity:1;" d="M 337.5 210.933594 L 321.371094 210.933594 C 321.371094 137.117188 261.316406 77.0625 187.5 77.0625 C 113.679688 77.0625 53.625 137.117188 53.625 210.933594 L 37.5 210.933594 C 37.5 128.226562 104.789062 60.9375 187.5 60.9375 C 270.210938 60.9375 337.5 128.226562 337.5 210.933594 Z M 337.5 210.933594 "/>
</g>
<path style=" stroke:none;fill-rule:nonzero;fill:rgb(0%,0%,0%);fill-opacity:1;" d="M 187.5 107.8125 C 185.8125 107.8125 184.125 107.855469 182.441406 107.9375 C 180.753906 108.019531 179.070312 108.144531 177.390625 108.308594 C 175.710938 108.472656 174.039062 108.679688 172.367188 108.929688 C 170.699219 109.175781 169.035156 109.464844 167.382812 109.792969 C 165.726562 110.125 164.078125 110.492188 162.441406 110.902344 C 160.804688 111.3125 159.179688 111.761719 157.5625 112.253906 C 155.949219 112.742188 154.347656 113.273438 152.757812 113.839844 C 151.167969 114.410156 149.59375 115.015625 148.035156 115.664062 C 146.476562 116.308594 144.933594 116.992188 143.410156 117.714844 C 141.882812 118.433594 140.375 119.195312 138.886719 119.988281 C 137.398438 120.785156 135.929688 121.617188 134.484375 122.484375 C 133.035156 123.351562 131.609375 124.253906 130.207031 125.191406 C 128.804688 126.128906 127.425781 127.101562 126.070312 128.105469 C 124.714844 129.113281 123.382812 130.148438 122.078125 131.222656 C 120.773438 132.292969 119.496094 133.394531 118.246094 134.527344 C 116.996094 135.660156 115.773438 136.824219 114.578125 138.015625 C 113.386719 139.210938 112.222656 140.433594 111.089844 141.683594 C 109.957031 142.933594 108.855469 144.210938 107.785156 145.515625 C 106.710938 146.820312 105.675781 148.152344 104.667969 149.507812 C 103.664062 150.863281 102.691406 152.242188 101.753906 153.644531 C 100.816406 155.046875 99.914062 156.472656 99.046875 157.921875 C 98.179688 159.367188 97.347656 160.835938 96.550781 162.324219 C 95.757812 163.8125 94.996094 165.320312 94.277344 166.847656 C 93.554688 168.371094 92.871094 169.914062 92.226562 171.472656 C 91.578125 173.03125 90.972656 174.605469 90.402344 176.195312 C 89.835938 177.785156 89.304688 179.386719 88.816406 181 C 88.324219 182.617188 87.875 184.242188 87.464844 185.878906 C 87.054688 187.515625 86.6875 189.164062 86.355469 190.820312 C 86.027344 192.472656 85.738281 194.136719 85.492188 195.804688 C 85.242188 197.476562 85.035156 199.148438 84.871094 200.828125 C 84.707031 202.507812 84.582031 204.191406 84.5 205.878906 C 84.417969 207.5625 84.375 209.25 84.375 210.9375 C 84.375 212.625 84.417969 214.3125 84.5 215.996094 C 84.582031 217.683594 84.707031 219.367188 84.871094 221.046875 C 85.035156 222.726562 85.242188 224.398438 85.492188 226.070312 C 85.738281 227.738281 86.027344 229.402344 86.355469 231.054688 C 86.6875 232.710938 87.054688 234.359375 87.464844 235.996094 C 87.875 237.632812 88.324219 239.257812 88.816406 240.875 C 89.304688 242.488281 89.835938 244.089844 90.402344 245.679688 C 90.972656 247.269531 91.578125 248.84375 92.226562 250.402344 C 92.871094 251.960938 93.554688 253.503906 94.277344 255.027344 C 94.996094 256.554688 95.757812 258.0625 96.550781 259.550781 C 97.347656 261.039062 98.179688 262.507812 99.046875 263.953125 C 99.914062 265.402344 100.816406 266.828125 101.753906 268.230469 C 102.691406 269.632812 103.664062 271.011719 104.667969 272.367188 C 105.675781 273.722656 106.710938 275.054688 107.785156 276.359375 C 108.855469 277.664062 109.957031 278.941406 111.089844 280.191406 C 112.222656 281.441406 113.386719 282.664062 114.578125 283.859375 C 115.773438 285.050781 116.996094 286.214844 118.246094 287.347656 C 119.496094 288.480469 120.773438 289.582031 122.078125 290.652344 C 123.382812 291.726562 124.714844 292.761719 126.070312 293.769531 C 127.425781 294.773438 128.804688 295.746094 130.207031 296.683594 C 131.609375 297.621094 133.035156 298.523438 134.484375 299.390625 C 135.929688 300.257812 137.398438 301.089844 138.886719 301.886719 C 140.375 302.679688 141.882812 303.441406 143.410156 304.160156 C 144.933594 304.882812 146.476562 305.566406 148.035156 306.210938 C 149.59375 306.859375 151.167969 307.464844 152.757812 308.035156 C 154.347656 308.601562 155.949219 309.132812 157.5625 309.621094 C 159.179688 310.113281 160.804688 310.5625 162.441406 310.972656 C 164.078125 311.382812 165.726562 311.75 167.382812 312.082031 C 169.035156 312.410156 170.699219 312.699219 172.367188 312.945312 C 174.039062 313.195312 175.710938 313.402344 177.390625 313.566406 C 179.070312 313.730469 180.753906 313.855469 182.441406 313.9375 C 184.125 314.019531 185.8125 314.0625 187.5 314.0625 C 189.1875 314.0625 190.875 314.019531 192.558594 313.9375 C 194.246094 313.855469 195.929688 313.730469 197.609375 313.566406 C 199.289062 313.402344 200.960938 313.195312 202.632812 312.945312 C 204.300781 312.699219 205.964844 312.410156 207.617188 312.082031 C 209.273438 311.75 210.921875 311.382812 212.558594 310.972656 C 214.195312 310.5625 215.820312 310.113281 217.4375 309.621094 C 219.050781 309.132812 220.652344 308.601562 222.242188 308.035156 C 223.832031 307.464844 225.40625 306.859375 226.964844 306.210938 C 228.523438 305.566406 230.066406 304.882812 231.589844 304.160156 C 233.117188 303.441406 234.625 302.679688 236.113281 301.886719 C 237.601562 301.089844 239.070312 300.257812 240.515625 299.390625 C 241.964844 298.523438 243.390625 297.621094 244.792969 296.683594 C 246.195312 295.746094 247.574219 294.773438 248.929688 293.769531 C 250.285156 292.761719 251.617188 291.726562 252.921875 290.652344 C 254.226562 289.582031 255.503906 288.480469 256.753906 287.347656 C 258.003906 286.214844 259.226562 285.050781 260.421875 283.859375 C 261.613281 282.664062 262.777344 281.441406 263.910156 280.191406 C 265.042969 278.941406 266.144531 277.664062 267.214844 276.359375 C 268.289062 275.054688 269.324219 273.722656 270.332031 272.367188 C 271.335938 271.011719 272.308594 269.632812 273.246094 268.230469 C 274.183594 266.828125 275.085938 265.402344 275.953125 263.953125 C 276.820312 262.507812 277.652344 261.039062 278.449219 259.550781 C 279.242188 258.0625 280.003906 256.554688 280.722656 255.027344 C 281.445312 253.503906 282.128906 251.960938 282.773438 250.402344 C 283.421875 248.84375 284.027344 247.269531 284.597656 245.679688 C 285.164062 244.089844 285.695312 242.488281 286.183594 240.875 C 286.675781 239.257812 287.125 237.632812 287.535156 235.996094 C 287.945312 234.359375 288.3125 232.710938 288.644531 231.054688 C 288.972656 229.402344 289.261719 227.738281 289.507812 226.070312 C 289.757812 224.398438 289.964844 222.726562 290.128906 221.046875 C 290.292969 219.367188 290.417969 217.683594 290.5 215.996094 C 290.582031 214.3125 290.625 212.625 290.625 210.9375 C 290.625 209.25 290.582031 207.5625 290.5 205.878906 C 290.417969 204.191406 290.292969 202.507812 290.128906 200.828125 C 289.964844 199.148438 289.757812 197.476562 289.507812 195.804688 C 289.261719 194.136719 288.972656 192.472656 288.644531 190.820312 C 288.3125 189.164062 287.945312 187.515625 287.535156 185.878906 C 287.125 184.242188 286.675781 182.617188 286.183594 181 C 285.695312 179.386719 285.164062 177.785156 284.597656 176.195312 C 284.027344 174.605469 283.421875 173.03125 282.773438 171.472656 C 282.128906 169.914062 281.445312 168.371094 280.722656 166.847656 C 280.003906 165.320312 279.242188 163.8125 278.449219 162.324219 C 277.652344 160.835938 276.820312 159.367188 275.953125 157.921875 C 275.085938 156.472656 274.183594 155.046875 273.246094 153.644531 C 272.308594 152.242188 271.335938 150.863281 270.332031 149.507812 C 269.324219 148.152344 268.289062 146.820312 267.214844 145.515625 C 266.144531 144.210938 265.042969 142.933594 263.910156 141.683594 C 262.777344 140.433594 261.613281 139.210938 260.421875 138.015625 C 259.226562 136.824219 258.003906 135.660156 256.753906 134.527344 C 255.503906 133.394531 254.226562 132.292969 252.921875 131.222656 C 251.617188 130.148438 250.285156 129.113281 248.929688 128.105469 C 247.574219 127.101562 246.195312 126.128906 244.792969 125.191406 C 243.390625 124.253906 241.964844 123.351562 240.515625 122.484375 C 239.070312 121.617188 237.601562 120.785156 236.113281 119.988281 C 234.625 119.195312 233.117188 118.433594 231.589844 117.714844 C 230.066406 116.992188 228.523438 116.308594 226.964844 115.664062 C 225.40625 115.015625 223.832031 114.410156 222.242188 113.839844 C 220.652344 113.273438 219.050781 112.742188 217.4375 112.253906 C 215.820312 111.761719 214.195312 111.3125 212.558594 110.902344 C 210.921875 110.492188 209.273438 110.125 207.617188 109.792969 C 205.964844 109.464844 204.300781 109.175781 202.632812 108.929688 C 200.960938 108.679688 199.289062 108.472656 197.609375 108.308594 C 195.929688 108.144531 194.246094 108.019531 192.558594 107.9375 C 190.875 107.855469 189.1875 107.8125 187.5 107.8125 Z M 187.5 107.8125 "/>
<path style=" stroke:none;fill-rule:nonzero;fill:rgb(100%,100%,100%);fill-opacity:1;" d="M 187.5 192.898438 C 186.910156 192.898438 186.320312 192.925781 185.730469 192.984375 C 185.144531 193.042969 184.558594 193.128906 183.980469 193.242188 C 183.402344 193.359375 182.828125 193.503906 182.261719 193.671875 C 181.699219 193.84375 181.140625 194.042969 180.597656 194.269531 C 180.050781 194.496094 179.515625 194.75 178.996094 195.027344 C 178.476562 195.304688 177.96875 195.609375 177.476562 195.9375 C 176.984375 196.265625 176.511719 196.617188 176.054688 196.992188 C 175.597656 197.367188 175.160156 197.761719 174.742188 198.179688 C 174.324219 198.597656 173.929688 199.035156 173.554688 199.492188 C 173.179688 199.949219 172.828125 200.421875 172.5 200.914062 C 172.171875 201.40625 171.867188 201.914062 171.589844 202.433594 C 171.3125 202.953125 171.058594 203.488281 170.832031 204.035156 C 170.605469 204.578125 170.40625 205.136719 170.234375 205.699219 C 170.066406 206.265625 169.921875 206.839844 169.804688 207.417969 C 169.691406 207.996094 169.605469 208.582031 169.546875 209.167969 C 169.488281 209.757812 169.460938 210.347656 169.460938 210.9375 C 169.460938 211.527344 169.488281 212.117188 169.546875 212.707031 C 169.605469 213.292969 169.691406 213.878906 169.804688 214.457031 C 169.921875 215.035156 170.066406 215.609375 170.234375 216.175781 C 170.40625 216.738281 170.605469 217.296875 170.832031 217.839844 C 171.058594 218.386719 171.3125 218.921875 171.589844 219.441406 C 171.867188 219.960938 172.171875 220.46875 172.5 220.960938 C 172.828125 221.453125 173.179688 221.925781 173.554688 222.382812 C 173.929688 222.839844 174.324219 223.277344 174.742188 223.695312 C 175.160156 224.113281 175.597656 224.507812 176.054688 224.882812 C 176.511719 225.257812 176.984375 225.609375 177.476562 225.9375 C 177.96875 226.265625 178.476562 226.570312 178.996094 226.847656 C 179.515625 227.125 180.050781 227.378906 180.597656 227.605469 C 181.140625 227.832031 181.699219 228.03125 182.261719 228.203125 C 182.828125 228.371094 183.402344 228.515625 183.980469 228.632812 C 184.558594 228.746094 185.144531 228.832031 185.730469 228.890625 C 186.320312 228.949219 186.910156 228.976562 187.5 228.976562 C 188.089844 228.976562 188.679688 228.949219 189.269531 228.890625 C 189.855469 228.832031 190.441406 228.746094 191.019531 228.632812 C 191.597656 228.515625 192.171875 228.371094 192.738281 228.203125 C 193.300781 228.03125 193.859375 227.832031 194.402344 227.605469 C 194.949219 227.378906 195.484375 227.125 196.003906 226.847656 C 196.523438 226.570312 197.03125 226.265625 197.523438 225.9375 C 198.015625 225.609375 198.488281 225.257812 198.945312 224.882812 C 199.402344 224.507812 199.839844 224.113281 200.257812 223.695312 C 200.675781 223.277344 201.070312 222.839844 201.445312 222.382812 C 201.820312 221.925781 202.171875 221.453125 202.5 220.960938 C 202.828125 220.46875 203.132812 219.960938 203.410156 219.441406 C 203.6875 218.921875 203.941406 218.386719 204.167969 217.839844 C 204.394531 217.296875 204.59375 216.738281 204.765625 216.175781 C 204.933594 215.609375 205.078125 215.035156 205.195312 214.457031 C 205.308594 213.878906 205.394531 213.292969 205.453125 212.707031 C 205.511719 212.117188 205.539062 211.527344 205.539062 210.9375 C 205.539062 210.347656 205.511719 209.757812 205.453125 209.167969 C 205.394531 208.582031 205.308594 207.996094 205.195312 207.417969 C 205.078125 206.839844 204.933594 206.265625 204.765625 205.699219 C 204.59375 205.136719 204.394531 204.578125 204.167969 204.035156 C 203.941406 203.488281 203.6875 202.953125 203.410156 202.433594 C 203.132812 201.914062 202.828125 201.40625 202.5 200.914062 C 202.171875 200.421875 201.820312 199.949219 201.445312 199.492188 C 201.070312 199.035156 200.675781 198.597656 200.257812 198.179688 C 199.839844 197.761719 199.402344 197.367188 198.945312 196.992188 C 198.488281 196.617188 198.015625 196.265625 197.523438 195.9375 C 197.03125 195.609375 196.523438 195.304688 196.003906 195.027344 C 195.484375 194.75 194.949219 194.496094 194.402344 194.269531 C 193.859375 194.042969 193.300781 193.84375 192.738281 193.671875 C 192.171875 193.503906 191.597656 193.359375 191.019531 193.242188 C 190.441406 193.128906 189.855469 193.042969 189.269531 192.984375 C 188.679688 192.925781 188.089844 192.898438 187.5 192.898438 Z M 187.5 192.898438 "/>
</g>
</svg>
