<?xml version="1.0" encoding="UTF-8"?>
<svg xmlns="http://www.w3.org/2000/svg" xmlns:xlink="http://www.w3.org/1999/xlink" width="375pt" height="374.999991pt" viewBox="0 0 375 374.999991" version="1.2">
<defs>
<clipPath id="clip1">
  <path d="M 89 89 L 286 89 L 286 337.832031 L 89 337.832031 Z M 89 89 "/>
</clipPath>
<clipPath id="clip2">
  <path d="M 76.578125 23.738281 L 298.542969 23.738281 L 298.542969 76 L 76.578125 76 Z M 76.578125 23.738281 "/>
</clipPath>
</defs>
<g id="surface1">
<g clip-path="url(#clip1)" clip-rule="nonzero">
<path style=" stroke:none;fill-rule:nonzero;fill:rgb(6.269836%,5.879211%,5.099487%);fill-opacity:1;" d="M 246.277344 298.070312 C 246.277344 301.691406 243.359375 304.613281 239.769531 304.613281 C 236.152344 304.613281 233.234375 301.691406 233.234375 298.070312 L 233.234375 128.257812 C 233.234375 124.636719 236.152344 121.714844 239.769531 121.714844 C 243.359375 121.714844 246.277344 124.636719 246.277344 128.257812 Z M 194.070312 298.070312 C 194.070312 301.691406 191.148438 304.613281 187.53125 304.613281 C 183.945312 304.613281 181.023438 301.691406 181.023438 298.070312 L 181.023438 128.257812 C 181.023438 124.636719 183.945312 121.714844 187.53125 121.714844 C 191.148438 121.714844 194.070312 124.636719 194.070312 128.257812 Z M 141.859375 298.070312 C 141.859375 301.691406 138.941406 304.613281 135.324219 304.613281 C 131.707031 304.613281 128.789062 301.691406 128.789062 298.070312 L 128.789062 128.257812 C 128.789062 124.636719 131.707031 121.714844 135.324219 121.714844 C 138.941406 121.714844 141.859375 124.636719 141.859375 128.257812 Z M 278.933594 89.066406 L 96.160156 89.066406 C 92.574219 89.066406 89.652344 91.988281 89.625 95.578125 L 89.625 330.71875 C 89.652344 334.339844 92.574219 337.234375 96.160156 337.261719 L 278.933594 337.261719 C 282.519531 337.234375 285.441406 334.339844 285.441406 330.71875 L 285.441406 95.578125 C 285.441406 91.988281 282.519531 89.066406 278.933594 89.066406 "/>
</g>
<g clip-path="url(#clip2)" clip-rule="nonzero">
<path style=" stroke:none;fill-rule:nonzero;fill:rgb(6.269836%,5.879211%,5.099487%);fill-opacity:1;" d="M 285.441406 49.875 L 220.1875 49.875 L 220.1875 43.335938 C 220.1875 32.507812 211.398438 23.738281 200.605469 23.738281 L 174.488281 23.738281 C 163.667969 23.738281 154.90625 32.507812 154.90625 43.335938 L 154.90625 49.875 L 89.625 49.875 C 82.421875 49.875 76.578125 55.722656 76.578125 62.929688 C 76.578125 70.140625 82.421875 75.984375 89.625 75.984375 L 285.441406 75.984375 C 292.675781 75.984375 298.515625 70.140625 298.515625 62.929688 C 298.515625 55.722656 292.675781 49.875 285.441406 49.875 "/>
</g>
</g>
</svg>
