<svg width="100" height="100" viewBox="0 0 100 100" fill="none" xmlns="http://www.w3.org/2000/svg">
<path d="M49.9994 18.0612L18.0605 50L49.9994 81.9388L81.9382 50L49.9994 18.0612Z" fill="#F3C045"/>
<path d="M100 11.6062C100 5.19687 94.8031 0 88.3937 0C83.2094 0 78.8719 3.42187 77.3812 8.1125H22.6187C21.1281 3.42187 16.7906 0 11.6062 0C5.19687 0 0 5.19687 0 11.6062C0 16.7906 3.42187 21.1312 8.11562 22.6187V77.3812C3.42187 78.8687 0 83.2094 0 88.3937C0 94.8031 5.19687 100 11.6062 100C16.3125 100 20.3406 97.1875 22.1625 93.1625H77.8375C79.6594 97.1875 83.6875 100 88.3937 100C94.8031 100 100 94.8031 100 88.3937C100 83.6875 97.1875 79.6562 93.1625 77.8344V22.1625C97.1875 20.3406 100 16.3125 100 11.6062ZM90.0375 76.9531C89.4969 76.875 88.9562 76.7875 88.3937 76.7875C81.9844 76.7875 76.7875 81.9844 76.7875 88.3937C76.7875 88.9562 76.875 89.4969 76.9531 90.0375H23.0469C23.125 89.4969 23.2125 88.9562 23.2125 88.3937C23.2125 81.9844 18.0156 76.7875 11.6062 76.7875C11.4812 76.7875 11.3656 76.8187 11.2406 76.825V23.175C11.3656 23.1781 11.4812 23.2125 11.6062 23.2125C18.0156 23.2125 23.2125 18.0156 23.2125 11.6062C23.2125 11.4812 23.1781 11.3625 23.175 11.2406H76.825C76.8219 11.3656 76.7875 11.4812 76.7875 11.6062C76.7875 18.0156 81.9844 23.2125 88.3937 23.2125C88.9562 23.2125 89.4938 23.125 90.0375 23.0469V76.9531V76.9531Z" fill="black"/>
</svg>
