<svg width="100" height="100" viewBox="0 0 100 100" fill="none" xmlns="http://www.w3.org/2000/svg">
<path d="M50.0001 41.7062C61.517 41.7062 70.8532 32.37 70.8532 20.8531C70.8532 9.33626 61.517 0 50.0001 0C38.4832 0 29.147 9.33626 29.147 20.8531C29.147 32.37 38.4832 41.7062 50.0001 41.7062Z" fill="black"/>
<path d="M20.8531 91.7063C32.37 91.7063 41.7062 82.37 41.7062 70.8531C41.7062 59.3363 32.37 50 20.8531 50C9.33626 50 0 59.3363 0 70.8531C0 82.37 9.33626 91.7063 20.8531 91.7063Z" fill="black"/>
<path d="M54.3438 52.3219L77.1719 91.7719L100 52.3219H54.3438Z" fill="#84B762"/>
</svg>
