<svg width="100" height="100" viewBox="0 0 100 100" fill="none" xmlns="http://www.w3.org/2000/svg">
<g clip-path="url(#clip0)">
<path d="M14.4468 64.4468L49.9999 100L85.553 64.4468L49.9999 28.8969L14.4468 64.4468ZM49.9999 81.1656L33.2812 64.4468L49.9999 47.7281L66.7187 64.4468L49.9999 81.1656Z" fill="black"/>
<path d="M42.9313 21.4656L21.4656 0L0 21.4656L21.4656 42.9313L42.9313 21.4656ZM21.4656 11.3719L31.5594 21.4656L21.4656 31.5594L11.3719 21.4656L21.4656 11.3719Z" fill="black"/>
<path d="M57.0688 21.4656L78.5345 42.9313L100 21.4656L78.5345 0L57.0688 21.4656ZM78.5345 31.5594L68.4407 21.4656L78.5345 11.3719L88.6282 21.4656L78.5345 31.5594Z" fill="black"/>
<rect x="49.8384" y="27.9976" width="51.7348" height="51.7348" transform="rotate(45 49.8384 27.9976)" fill="#2F7197"/>
</g>
<defs>
<clipPath id="clip0">
<rect width="100" height="100" fill="white"/>
</clipPath>
</defs>
</svg>
