<?xml version="1.0" encoding="UTF-8"?>
<svg xmlns="http://www.w3.org/2000/svg" xmlns:xlink="http://www.w3.org/1999/xlink" width="375pt" height="374.999991pt" viewBox="0 0 375 374.999991" version="1.2">
<defs>
<clipPath id="clip1">
  <path d="M 179 151 L 276 151 L 276 243 L 179 243 Z M 179 151 "/>
</clipPath>
<clipPath id="clip2">
  <path d="M 256.269531 124.9375 L 315.503906 228.929688 L 220.554688 283.015625 L 161.316406 179.019531 Z M 256.269531 124.9375 "/>
</clipPath>
<clipPath id="clip3">
  <path d="M 256.269531 124.9375 L 315.503906 228.929688 L 220.554688 283.015625 L 161.316406 179.019531 Z M 256.269531 124.9375 "/>
</clipPath>
<clipPath id="clip4">
  <path d="M 268 206 L 293 206 L 293 222 L 268 222 Z M 268 206 "/>
</clipPath>
<clipPath id="clip5">
  <path d="M 256.269531 124.9375 L 315.503906 228.929688 L 220.554688 283.015625 L 161.316406 179.019531 Z M 256.269531 124.9375 "/>
</clipPath>
<clipPath id="clip6">
  <path d="M 256.269531 124.9375 L 315.503906 228.929688 L 220.554688 283.015625 L 161.316406 179.019531 Z M 256.269531 124.9375 "/>
</clipPath>
<clipPath id="clip7">
  <path d="M 258 221 L 283 221 L 283 238 L 258 238 Z M 258 221 "/>
</clipPath>
<clipPath id="clip8">
  <path d="M 256.269531 124.9375 L 315.503906 228.929688 L 220.554688 283.015625 L 161.316406 179.019531 Z M 256.269531 124.9375 "/>
</clipPath>
<clipPath id="clip9">
  <path d="M 256.269531 124.9375 L 315.503906 228.929688 L 220.554688 283.015625 L 161.316406 179.019531 Z M 256.269531 124.9375 "/>
</clipPath>
<clipPath id="clip10">
  <path d="M 265 211 L 290 211 L 290 228 L 265 228 Z M 265 211 "/>
</clipPath>
<clipPath id="clip11">
  <path d="M 256.269531 124.9375 L 315.503906 228.929688 L 220.554688 283.015625 L 161.316406 179.019531 Z M 256.269531 124.9375 "/>
</clipPath>
<clipPath id="clip12">
  <path d="M 256.269531 124.9375 L 315.503906 228.929688 L 220.554688 283.015625 L 161.316406 179.019531 Z M 256.269531 124.9375 "/>
</clipPath>
<clipPath id="clip13">
  <path d="M 259 153 L 281 153 L 281 168 L 259 168 Z M 259 153 "/>
</clipPath>
<clipPath id="clip14">
  <path d="M 256.269531 124.9375 L 315.503906 228.929688 L 220.554688 283.015625 L 161.316406 179.019531 Z M 256.269531 124.9375 "/>
</clipPath>
<clipPath id="clip15">
  <path d="M 256.269531 124.9375 L 315.503906 228.929688 L 220.554688 283.015625 L 161.316406 179.019531 Z M 256.269531 124.9375 "/>
</clipPath>
<clipPath id="clip16">
  <path d="M 272 201 L 297 201 L 297 217 L 272 217 Z M 272 201 "/>
</clipPath>
<clipPath id="clip17">
  <path d="M 256.269531 124.9375 L 315.503906 228.929688 L 220.554688 283.015625 L 161.316406 179.019531 Z M 256.269531 124.9375 "/>
</clipPath>
<clipPath id="clip18">
  <path d="M 256.269531 124.9375 L 315.503906 228.929688 L 220.554688 283.015625 L 161.316406 179.019531 Z M 256.269531 124.9375 "/>
</clipPath>
<clipPath id="clip19">
  <path d="M 262 216 L 287 216 L 287 233 L 262 233 Z M 262 216 "/>
</clipPath>
<clipPath id="clip20">
  <path d="M 256.269531 124.9375 L 315.503906 228.929688 L 220.554688 283.015625 L 161.316406 179.019531 Z M 256.269531 124.9375 "/>
</clipPath>
<clipPath id="clip21">
  <path d="M 256.269531 124.9375 L 315.503906 228.929688 L 220.554688 283.015625 L 161.316406 179.019531 Z M 256.269531 124.9375 "/>
</clipPath>
<clipPath id="clip22">
  <path d="M 252 231 L 276 231 L 276 248 L 252 248 Z M 252 231 "/>
</clipPath>
<clipPath id="clip23">
  <path d="M 256.269531 124.9375 L 315.503906 228.929688 L 220.554688 283.015625 L 161.316406 179.019531 Z M 256.269531 124.9375 "/>
</clipPath>
<clipPath id="clip24">
  <path d="M 256.269531 124.9375 L 315.503906 228.929688 L 220.554688 283.015625 L 161.316406 179.019531 Z M 256.269531 124.9375 "/>
</clipPath>
<clipPath id="clip25">
  <path d="M 243 241 L 270 241 L 270 257 L 243 257 Z M 243 241 "/>
</clipPath>
<clipPath id="clip26">
  <path d="M 256.269531 124.9375 L 315.503906 228.929688 L 220.554688 283.015625 L 161.316406 179.019531 Z M 256.269531 124.9375 "/>
</clipPath>
<clipPath id="clip27">
  <path d="M 256.269531 124.9375 L 315.503906 228.929688 L 220.554688 283.015625 L 161.316406 179.019531 Z M 256.269531 124.9375 "/>
</clipPath>
<clipPath id="clip28">
  <path d="M 248 236 L 273 236 L 273 253 L 248 253 Z M 248 236 "/>
</clipPath>
<clipPath id="clip29">
  <path d="M 256.269531 124.9375 L 315.503906 228.929688 L 220.554688 283.015625 L 161.316406 179.019531 Z M 256.269531 124.9375 "/>
</clipPath>
<clipPath id="clip30">
  <path d="M 256.269531 124.9375 L 315.503906 228.929688 L 220.554688 283.015625 L 161.316406 179.019531 Z M 256.269531 124.9375 "/>
</clipPath>
<clipPath id="clip31">
  <path d="M 255 226 L 280 226 L 280 243 L 255 243 Z M 255 226 "/>
</clipPath>
<clipPath id="clip32">
  <path d="M 256.269531 124.9375 L 315.503906 228.929688 L 220.554688 283.015625 L 161.316406 179.019531 Z M 256.269531 124.9375 "/>
</clipPath>
<clipPath id="clip33">
  <path d="M 256.269531 124.9375 L 315.503906 228.929688 L 220.554688 283.015625 L 161.316406 179.019531 Z M 256.269531 124.9375 "/>
</clipPath>
<clipPath id="clip34">
  <path d="M 230 243 L 262 243 L 262 257 L 230 257 Z M 230 243 "/>
</clipPath>
<clipPath id="clip35">
  <path d="M 256.269531 124.9375 L 315.503906 228.929688 L 220.554688 283.015625 L 161.316406 179.019531 Z M 256.269531 124.9375 "/>
</clipPath>
<clipPath id="clip36">
  <path d="M 256.269531 124.9375 L 315.503906 228.929688 L 220.554688 283.015625 L 161.316406 179.019531 Z M 256.269531 124.9375 "/>
</clipPath>
<clipPath id="clip37">
  <path d="M 205 243 L 237 243 L 237 257 L 205 257 Z M 205 243 "/>
</clipPath>
<clipPath id="clip38">
  <path d="M 256.269531 124.9375 L 315.503906 228.929688 L 220.554688 283.015625 L 161.316406 179.019531 Z M 256.269531 124.9375 "/>
</clipPath>
<clipPath id="clip39">
  <path d="M 256.269531 124.9375 L 315.503906 228.929688 L 220.554688 283.015625 L 161.316406 179.019531 Z M 256.269531 124.9375 "/>
</clipPath>
<clipPath id="clip40">
  <path d="M 268 176 L 291 176 L 291 195 L 268 195 Z M 268 176 "/>
</clipPath>
<clipPath id="clip41">
  <path d="M 256.269531 124.9375 L 315.503906 228.929688 L 220.554688 283.015625 L 161.316406 179.019531 Z M 256.269531 124.9375 "/>
</clipPath>
<clipPath id="clip42">
  <path d="M 256.269531 124.9375 L 315.503906 228.929688 L 220.554688 283.015625 L 161.316406 179.019531 Z M 256.269531 124.9375 "/>
</clipPath>
<clipPath id="clip43">
  <path d="M 261 158 L 284 158 L 284 177 L 261 177 Z M 261 158 "/>
</clipPath>
<clipPath id="clip44">
  <path d="M 256.269531 124.9375 L 315.503906 228.929688 L 220.554688 283.015625 L 161.316406 179.019531 Z M 256.269531 124.9375 "/>
</clipPath>
<clipPath id="clip45">
  <path d="M 256.269531 124.9375 L 315.503906 228.929688 L 220.554688 283.015625 L 161.316406 179.019531 Z M 256.269531 124.9375 "/>
</clipPath>
<clipPath id="clip46">
  <path d="M 218 243 L 250 243 L 250 257 L 218 257 Z M 218 243 "/>
</clipPath>
<clipPath id="clip47">
  <path d="M 256.269531 124.9375 L 315.503906 228.929688 L 220.554688 283.015625 L 161.316406 179.019531 Z M 256.269531 124.9375 "/>
</clipPath>
<clipPath id="clip48">
  <path d="M 256.269531 124.9375 L 315.503906 228.929688 L 220.554688 283.015625 L 161.316406 179.019531 Z M 256.269531 124.9375 "/>
</clipPath>
<clipPath id="clip49">
  <path d="M 199 243 L 225 243 L 225 256 L 199 256 Z M 199 243 "/>
</clipPath>
<clipPath id="clip50">
  <path d="M 256.269531 124.9375 L 315.503906 228.929688 L 220.554688 283.015625 L 161.316406 179.019531 Z M 256.269531 124.9375 "/>
</clipPath>
<clipPath id="clip51">
  <path d="M 256.269531 124.9375 L 315.503906 228.929688 L 220.554688 283.015625 L 161.316406 179.019531 Z M 256.269531 124.9375 "/>
</clipPath>
<clipPath id="clip52">
  <path d="M 265 167 L 288 167 L 288 186 L 265 186 Z M 265 167 "/>
</clipPath>
<clipPath id="clip53">
  <path d="M 256.269531 124.9375 L 315.503906 228.929688 L 220.554688 283.015625 L 161.316406 179.019531 Z M 256.269531 124.9375 "/>
</clipPath>
<clipPath id="clip54">
  <path d="M 256.269531 124.9375 L 315.503906 228.929688 L 220.554688 283.015625 L 161.316406 179.019531 Z M 256.269531 124.9375 "/>
</clipPath>
<clipPath id="clip55">
  <path d="M 275 194 L 298 194 L 298 212 L 275 212 Z M 275 194 "/>
</clipPath>
<clipPath id="clip56">
  <path d="M 256.269531 124.9375 L 315.503906 228.929688 L 220.554688 283.015625 L 161.316406 179.019531 Z M 256.269531 124.9375 "/>
</clipPath>
<clipPath id="clip57">
  <path d="M 256.269531 124.9375 L 315.503906 228.929688 L 220.554688 283.015625 L 161.316406 179.019531 Z M 256.269531 124.9375 "/>
</clipPath>
<clipPath id="clip58">
  <path d="M 272 185 L 295 185 L 295 204 L 272 204 Z M 272 185 "/>
</clipPath>
<clipPath id="clip59">
  <path d="M 256.269531 124.9375 L 315.503906 228.929688 L 220.554688 283.015625 L 161.316406 179.019531 Z M 256.269531 124.9375 "/>
</clipPath>
<clipPath id="clip60">
  <path d="M 256.269531 124.9375 L 315.503906 228.929688 L 220.554688 283.015625 L 161.316406 179.019531 Z M 256.269531 124.9375 "/>
</clipPath>
<clipPath id="clip61">
  <path d="M 78 191 L 185 191 L 185 281 L 78 281 Z M 78 191 "/>
</clipPath>
<clipPath id="clip62">
  <path d="M 164.988281 176.578125 L 196.71875 291.976562 L 91.355469 320.945312 L 59.625 205.546875 Z M 164.988281 176.578125 "/>
</clipPath>
<clipPath id="clip63">
  <path d="M 59.898438 205.472656 L 91.628906 320.871094 L 196.992188 291.898438 L 165.261719 176.5 Z M 59.898438 205.472656 "/>
</clipPath>
<clipPath id="clip64">
  <path d="M 99 273 L 112 273 L 112 299 L 99 299 Z M 99 273 "/>
</clipPath>
<clipPath id="clip65">
  <path d="M 164.988281 176.578125 L 196.71875 291.976562 L 91.355469 320.945312 L 59.625 205.546875 Z M 164.988281 176.578125 "/>
</clipPath>
<clipPath id="clip66">
  <path d="M 59.898438 205.472656 L 91.628906 320.871094 L 196.992188 291.898438 L 165.261719 176.5 Z M 59.898438 205.472656 "/>
</clipPath>
<clipPath id="clip67">
  <path d="M 117 277 L 129 277 L 129 302 L 117 302 Z M 117 277 "/>
</clipPath>
<clipPath id="clip68">
  <path d="M 164.988281 176.578125 L 196.71875 291.976562 L 91.355469 320.945312 L 59.625 205.546875 Z M 164.988281 176.578125 "/>
</clipPath>
<clipPath id="clip69">
  <path d="M 59.898438 205.472656 L 91.628906 320.871094 L 196.992188 291.898438 L 165.261719 176.5 Z M 59.898438 205.472656 "/>
</clipPath>
<clipPath id="clip70">
  <path d="M 105 274 L 118 274 L 118 300 L 105 300 Z M 105 274 "/>
</clipPath>
<clipPath id="clip71">
  <path d="M 164.988281 176.578125 L 196.71875 291.976562 L 91.355469 320.945312 L 59.625 205.546875 Z M 164.988281 176.578125 "/>
</clipPath>
<clipPath id="clip72">
  <path d="M 59.898438 205.472656 L 91.628906 320.871094 L 196.992188 291.898438 L 165.261719 176.5 Z M 59.898438 205.472656 "/>
</clipPath>
<clipPath id="clip73">
  <path d="M 72 227 L 80 227 L 80 253 L 72 253 Z M 72 227 "/>
</clipPath>
<clipPath id="clip74">
  <path d="M 164.988281 176.578125 L 196.71875 291.976562 L 91.355469 320.945312 L 59.625 205.546875 Z M 164.988281 176.578125 "/>
</clipPath>
<clipPath id="clip75">
  <path d="M 59.898438 205.472656 L 91.628906 320.871094 L 196.992188 291.898438 L 165.261719 176.5 Z M 59.898438 205.472656 "/>
</clipPath>
<clipPath id="clip76">
  <path d="M 94 272 L 106 272 L 106 297 L 94 297 Z M 94 272 "/>
</clipPath>
<clipPath id="clip77">
  <path d="M 164.988281 176.578125 L 196.71875 291.976562 L 91.355469 320.945312 L 59.625 205.546875 Z M 164.988281 176.578125 "/>
</clipPath>
<clipPath id="clip78">
  <path d="M 59.898438 205.472656 L 91.628906 320.871094 L 196.992188 291.898438 L 165.261719 176.5 Z M 59.898438 205.472656 "/>
</clipPath>
<clipPath id="clip79">
  <path d="M 111 275 L 124 275 L 124 301 L 111 301 Z M 111 275 "/>
</clipPath>
<clipPath id="clip80">
  <path d="M 164.988281 176.578125 L 196.71875 291.976562 L 91.355469 320.945312 L 59.625 205.546875 Z M 164.988281 176.578125 "/>
</clipPath>
<clipPath id="clip81">
  <path d="M 59.898438 205.472656 L 91.628906 320.871094 L 196.992188 291.898438 L 165.261719 176.5 Z M 59.898438 205.472656 "/>
</clipPath>
<clipPath id="clip82">
  <path d="M 129 279 L 141 279 L 141 305 L 129 305 Z M 129 279 "/>
</clipPath>
<clipPath id="clip83">
  <path d="M 164.988281 176.578125 L 196.71875 291.976562 L 91.355469 320.945312 L 59.625 205.546875 Z M 164.988281 176.578125 "/>
</clipPath>
<clipPath id="clip84">
  <path d="M 59.898438 205.472656 L 91.628906 320.871094 L 196.992188 291.898438 L 165.261719 176.5 Z M 59.898438 205.472656 "/>
</clipPath>
<clipPath id="clip85">
  <path d="M 141 280 L 154 280 L 154 307 L 141 307 Z M 141 280 "/>
</clipPath>
<clipPath id="clip86">
  <path d="M 164.988281 176.578125 L 196.71875 291.976562 L 91.355469 320.945312 L 59.625 205.546875 Z M 164.988281 176.578125 "/>
</clipPath>
<clipPath id="clip87">
  <path d="M 59.898438 205.472656 L 91.628906 320.871094 L 196.992188 291.898438 L 165.261719 176.5 Z M 59.898438 205.472656 "/>
</clipPath>
<clipPath id="clip88">
  <path d="M 135 280 L 147 280 L 147 306 L 135 306 Z M 135 280 "/>
</clipPath>
<clipPath id="clip89">
  <path d="M 164.988281 176.578125 L 196.71875 291.976562 L 91.355469 320.945312 L 59.625 205.546875 Z M 164.988281 176.578125 "/>
</clipPath>
<clipPath id="clip90">
  <path d="M 59.898438 205.472656 L 91.628906 320.871094 L 196.992188 291.898438 L 165.261719 176.5 Z M 59.898438 205.472656 "/>
</clipPath>
<clipPath id="clip91">
  <path d="M 123 278 L 135 278 L 135 303 L 123 303 Z M 123 278 "/>
</clipPath>
<clipPath id="clip92">
  <path d="M 164.988281 176.578125 L 196.71875 291.976562 L 91.355469 320.945312 L 59.625 205.546875 Z M 164.988281 176.578125 "/>
</clipPath>
<clipPath id="clip93">
  <path d="M 59.898438 205.472656 L 91.628906 320.871094 L 196.992188 291.898438 L 165.261719 176.5 Z M 59.898438 205.472656 "/>
</clipPath>
<clipPath id="clip94">
  <path d="M 148 271 L 163 271 L 163 303 L 148 303 Z M 148 271 "/>
</clipPath>
<clipPath id="clip95">
  <path d="M 164.988281 176.578125 L 196.71875 291.976562 L 91.355469 320.945312 L 59.625 205.546875 Z M 164.988281 176.578125 "/>
</clipPath>
<clipPath id="clip96">
  <path d="M 59.898438 205.472656 L 91.628906 320.871094 L 196.992188 291.898438 L 165.261719 176.5 Z M 59.898438 205.472656 "/>
</clipPath>
<clipPath id="clip97">
  <path d="M 166 253 L 180 253 L 180 285 L 166 285 Z M 166 253 "/>
</clipPath>
<clipPath id="clip98">
  <path d="M 164.988281 176.578125 L 196.71875 291.976562 L 91.355469 320.945312 L 59.625 205.546875 Z M 164.988281 176.578125 "/>
</clipPath>
<clipPath id="clip99">
  <path d="M 59.898438 205.472656 L 91.628906 320.871094 L 196.992188 291.898438 L 165.261719 176.5 Z M 59.898438 205.472656 "/>
</clipPath>
<clipPath id="clip100">
  <path d="M 81 251 L 91 251 L 91 280 L 81 280 Z M 81 251 "/>
</clipPath>
<clipPath id="clip101">
  <path d="M 164.988281 176.578125 L 196.71875 291.976562 L 91.355469 320.945312 L 59.625 205.546875 Z M 164.988281 176.578125 "/>
</clipPath>
<clipPath id="clip102">
  <path d="M 59.898438 205.472656 L 91.628906 320.871094 L 196.992188 291.898438 L 165.261719 176.5 Z M 59.898438 205.472656 "/>
</clipPath>
<clipPath id="clip103">
  <path d="M 74 233 L 83 233 L 83 262 L 74 262 Z M 74 233 "/>
</clipPath>
<clipPath id="clip104">
  <path d="M 164.988281 176.578125 L 196.71875 291.976562 L 91.355469 320.945312 L 59.625 205.546875 Z M 164.988281 176.578125 "/>
</clipPath>
<clipPath id="clip105">
  <path d="M 59.898438 205.472656 L 91.628906 320.871094 L 196.992188 291.898438 L 165.261719 176.5 Z M 59.898438 205.472656 "/>
</clipPath>
<clipPath id="clip106">
  <path d="M 157 262 L 172 262 L 172 294 L 157 294 Z M 157 262 "/>
</clipPath>
<clipPath id="clip107">
  <path d="M 164.988281 176.578125 L 196.71875 291.976562 L 91.355469 320.945312 L 59.625 205.546875 Z M 164.988281 176.578125 "/>
</clipPath>
<clipPath id="clip108">
  <path d="M 59.898438 205.472656 L 91.628906 320.871094 L 196.992188 291.898438 L 165.261719 176.5 Z M 59.898438 205.472656 "/>
</clipPath>
<clipPath id="clip109">
  <path d="M 175 249 L 185 249 L 185 276 L 175 276 Z M 175 249 "/>
</clipPath>
<clipPath id="clip110">
  <path d="M 164.988281 176.578125 L 196.71875 291.976562 L 91.355469 320.945312 L 59.625 205.546875 Z M 164.988281 176.578125 "/>
</clipPath>
<clipPath id="clip111">
  <path d="M 59.898438 205.472656 L 91.628906 320.871094 L 196.992188 291.898438 L 165.261719 176.5 Z M 59.898438 205.472656 "/>
</clipPath>
<clipPath id="clip112">
  <path d="M 77 242 L 87 242 L 87 271 L 77 271 Z M 77 242 "/>
</clipPath>
<clipPath id="clip113">
  <path d="M 164.988281 176.578125 L 196.71875 291.976562 L 91.355469 320.945312 L 59.625 205.546875 Z M 164.988281 176.578125 "/>
</clipPath>
<clipPath id="clip114">
  <path d="M 59.898438 205.472656 L 91.628906 320.871094 L 196.992188 291.898438 L 165.261719 176.5 Z M 59.898438 205.472656 "/>
</clipPath>
<clipPath id="clip115">
  <path d="M 89 268 L 100 268 L 100 296 L 89 296 Z M 89 268 "/>
</clipPath>
<clipPath id="clip116">
  <path d="M 164.988281 176.578125 L 196.71875 291.976562 L 91.355469 320.945312 L 59.625 205.546875 Z M 164.988281 176.578125 "/>
</clipPath>
<clipPath id="clip117">
  <path d="M 59.898438 205.472656 L 91.628906 320.871094 L 196.992188 291.898438 L 165.261719 176.5 Z M 59.898438 205.472656 "/>
</clipPath>
<clipPath id="clip118">
  <path d="M 85 259 L 95 259 L 95 288 L 85 288 Z M 85 259 "/>
</clipPath>
<clipPath id="clip119">
  <path d="M 164.988281 176.578125 L 196.71875 291.976562 L 91.355469 320.945312 L 59.625 205.546875 Z M 164.988281 176.578125 "/>
</clipPath>
<clipPath id="clip120">
  <path d="M 59.898438 205.472656 L 91.628906 320.871094 L 196.992188 291.898438 L 165.261719 176.5 Z M 59.898438 205.472656 "/>
</clipPath>
<clipPath id="clip121">
  <path d="M 102 92 L 199 92 L 199 186 L 102 186 Z M 102 92 "/>
</clipPath>
<clipPath id="clip122">
  <path d="M 117.640625 209.703125 L 64.707031 102.363281 L 162.714844 54.035156 L 215.644531 161.375 Z M 117.640625 209.703125 "/>
</clipPath>
<clipPath id="clip123">
  <path d="M 117.640625 209.703125 L 64.707031 102.363281 L 162.714844 54.035156 L 215.644531 161.375 Z M 117.640625 209.703125 "/>
</clipPath>
<clipPath id="clip124">
  <path d="M 86 110 L 111 110 L 111 128 L 86 128 Z M 86 110 "/>
</clipPath>
<clipPath id="clip125">
  <path d="M 117.640625 209.703125 L 64.707031 102.363281 L 162.714844 54.035156 L 215.644531 161.375 Z M 117.640625 209.703125 "/>
</clipPath>
<clipPath id="clip126">
  <path d="M 117.640625 209.703125 L 64.707031 102.363281 L 162.714844 54.035156 L 215.644531 161.375 Z M 117.640625 209.703125 "/>
</clipPath>
<clipPath id="clip127">
  <path d="M 97 96 L 122 96 L 122 114 L 97 114 Z M 97 96 "/>
</clipPath>
<clipPath id="clip128">
  <path d="M 117.640625 209.703125 L 64.707031 102.363281 L 162.714844 54.035156 L 215.644531 161.375 Z M 117.640625 209.703125 "/>
</clipPath>
<clipPath id="clip129">
  <path d="M 117.640625 209.703125 L 64.707031 102.363281 L 162.714844 54.035156 L 215.644531 161.375 Z M 117.640625 209.703125 "/>
</clipPath>
<clipPath id="clip130">
  <path d="M 90 105 L 114 105 L 114 123 L 90 123 Z M 90 105 "/>
</clipPath>
<clipPath id="clip131">
  <path d="M 117.640625 209.703125 L 64.707031 102.363281 L 162.714844 54.035156 L 215.644531 161.375 Z M 117.640625 209.703125 "/>
</clipPath>
<clipPath id="clip132">
  <path d="M 117.640625 209.703125 L 64.707031 102.363281 L 162.714844 54.035156 L 215.644531 161.375 Z M 117.640625 209.703125 "/>
</clipPath>
<clipPath id="clip133">
  <path d="M 96 165 L 117 165 L 117 182 L 96 182 Z M 96 165 "/>
</clipPath>
<clipPath id="clip134">
  <path d="M 117.640625 209.703125 L 64.707031 102.363281 L 162.714844 54.035156 L 215.644531 161.375 Z M 117.640625 209.703125 "/>
</clipPath>
<clipPath id="clip135">
  <path d="M 117.640625 209.703125 L 64.707031 102.363281 L 162.714844 54.035156 L 215.644531 161.375 Z M 117.640625 209.703125 "/>
</clipPath>
<clipPath id="clip136">
  <path d="M 83 115 L 107 115 L 107 133 L 83 133 Z M 83 115 "/>
</clipPath>
<clipPath id="clip137">
  <path d="M 117.640625 209.703125 L 64.707031 102.363281 L 162.714844 54.035156 L 215.644531 161.375 Z M 117.640625 209.703125 "/>
</clipPath>
<clipPath id="clip138">
  <path d="M 117.640625 209.703125 L 64.707031 102.363281 L 162.714844 54.035156 L 215.644531 161.375 Z M 117.640625 209.703125 "/>
</clipPath>
<clipPath id="clip139">
  <path d="M 94 101 L 118 101 L 118 119 L 94 119 Z M 94 101 "/>
</clipPath>
<clipPath id="clip140">
  <path d="M 117.640625 209.703125 L 64.707031 102.363281 L 162.714844 54.035156 L 215.644531 161.375 Z M 117.640625 209.703125 "/>
</clipPath>
<clipPath id="clip141">
  <path d="M 117.640625 209.703125 L 64.707031 102.363281 L 162.714844 54.035156 L 215.644531 161.375 Z M 117.640625 209.703125 "/>
</clipPath>
<clipPath id="clip142">
  <path d="M 105 86 L 129 86 L 129 104 L 105 104 Z M 105 86 "/>
</clipPath>
<clipPath id="clip143">
  <path d="M 117.640625 209.703125 L 64.707031 102.363281 L 162.714844 54.035156 L 215.644531 161.375 Z M 117.640625 209.703125 "/>
</clipPath>
<clipPath id="clip144">
  <path d="M 117.640625 209.703125 L 64.707031 102.363281 L 162.714844 54.035156 L 215.644531 161.375 Z M 117.640625 209.703125 "/>
</clipPath>
<clipPath id="clip145">
  <path d="M 112 77 L 138 77 L 138 94 L 112 94 Z M 112 77 "/>
</clipPath>
<clipPath id="clip146">
  <path d="M 117.640625 209.703125 L 64.707031 102.363281 L 162.714844 54.035156 L 215.644531 161.375 Z M 117.640625 209.703125 "/>
</clipPath>
<clipPath id="clip147">
  <path d="M 117.640625 209.703125 L 64.707031 102.363281 L 162.714844 54.035156 L 215.644531 161.375 Z M 117.640625 209.703125 "/>
</clipPath>
<clipPath id="clip148">
  <path d="M 108 81 L 133 81 L 133 99 L 108 99 Z M 108 81 "/>
</clipPath>
<clipPath id="clip149">
  <path d="M 117.640625 209.703125 L 64.707031 102.363281 L 162.714844 54.035156 L 215.644531 161.375 Z M 117.640625 209.703125 "/>
</clipPath>
<clipPath id="clip150">
  <path d="M 117.640625 209.703125 L 64.707031 102.363281 L 162.714844 54.035156 L 215.644531 161.375 Z M 117.640625 209.703125 "/>
</clipPath>
<clipPath id="clip151">
  <path d="M 101 91 L 125 91 L 125 109 L 101 109 Z M 101 91 "/>
</clipPath>
<clipPath id="clip152">
  <path d="M 117.640625 209.703125 L 64.707031 102.363281 L 162.714844 54.035156 L 215.644531 161.375 Z M 117.640625 209.703125 "/>
</clipPath>
<clipPath id="clip153">
  <path d="M 117.640625 209.703125 L 64.707031 102.363281 L 162.714844 54.035156 L 215.644531 161.375 Z M 117.640625 209.703125 "/>
</clipPath>
<clipPath id="clip154">
  <path d="M 120 78 L 151 78 L 151 93 L 120 93 Z M 120 78 "/>
</clipPath>
<clipPath id="clip155">
  <path d="M 117.640625 209.703125 L 64.707031 102.363281 L 162.714844 54.035156 L 215.644531 161.375 Z M 117.640625 209.703125 "/>
</clipPath>
<clipPath id="clip156">
  <path d="M 117.640625 209.703125 L 64.707031 102.363281 L 162.714844 54.035156 L 215.644531 161.375 Z M 117.640625 209.703125 "/>
</clipPath>
<clipPath id="clip157">
  <path d="M 145 79 L 176 79 L 176 95 L 145 95 Z M 145 79 "/>
</clipPath>
<clipPath id="clip158">
  <path d="M 117.640625 209.703125 L 64.707031 102.363281 L 162.714844 54.035156 L 215.644531 161.375 Z M 117.640625 209.703125 "/>
</clipPath>
<clipPath id="clip159">
  <path d="M 117.640625 209.703125 L 64.707031 102.363281 L 162.714844 54.035156 L 215.644531 161.375 Z M 117.640625 209.703125 "/>
</clipPath>
<clipPath id="clip160">
  <path d="M 87 138 L 109 138 L 109 158 L 87 158 Z M 87 138 "/>
</clipPath>
<clipPath id="clip161">
  <path d="M 117.640625 209.703125 L 64.707031 102.363281 L 162.714844 54.035156 L 215.644531 161.375 Z M 117.640625 209.703125 "/>
</clipPath>
<clipPath id="clip162">
  <path d="M 117.640625 209.703125 L 64.707031 102.363281 L 162.714844 54.035156 L 215.644531 161.375 Z M 117.640625 209.703125 "/>
</clipPath>
<clipPath id="clip163">
  <path d="M 93 156 L 115 156 L 115 176 L 93 176 Z M 93 156 "/>
</clipPath>
<clipPath id="clip164">
  <path d="M 117.640625 209.703125 L 64.707031 102.363281 L 162.714844 54.035156 L 215.644531 161.375 Z M 117.640625 209.703125 "/>
</clipPath>
<clipPath id="clip165">
  <path d="M 117.640625 209.703125 L 64.707031 102.363281 L 162.714844 54.035156 L 215.644531 161.375 Z M 117.640625 209.703125 "/>
</clipPath>
<clipPath id="clip166">
  <path d="M 132 79 L 163 79 L 163 94 L 132 94 Z M 132 79 "/>
</clipPath>
<clipPath id="clip167">
  <path d="M 117.640625 209.703125 L 64.707031 102.363281 L 162.714844 54.035156 L 215.644531 161.375 Z M 117.640625 209.703125 "/>
</clipPath>
<clipPath id="clip168">
  <path d="M 117.640625 209.703125 L 64.707031 102.363281 L 162.714844 54.035156 L 215.644531 161.375 Z M 117.640625 209.703125 "/>
</clipPath>
<clipPath id="clip169">
  <path d="M 157 80 L 182 80 L 182 95 L 157 95 Z M 157 80 "/>
</clipPath>
<clipPath id="clip170">
  <path d="M 117.640625 209.703125 L 64.707031 102.363281 L 162.714844 54.035156 L 215.644531 161.375 Z M 117.640625 209.703125 "/>
</clipPath>
<clipPath id="clip171">
  <path d="M 117.640625 209.703125 L 64.707031 102.363281 L 162.714844 54.035156 L 215.644531 161.375 Z M 117.640625 209.703125 "/>
</clipPath>
<clipPath id="clip172">
  <path d="M 90 147 L 112 147 L 112 167 L 90 167 Z M 90 147 "/>
</clipPath>
<clipPath id="clip173">
  <path d="M 117.640625 209.703125 L 64.707031 102.363281 L 162.714844 54.035156 L 215.644531 161.375 Z M 117.640625 209.703125 "/>
</clipPath>
<clipPath id="clip174">
  <path d="M 117.640625 209.703125 L 64.707031 102.363281 L 162.714844 54.035156 L 215.644531 161.375 Z M 117.640625 209.703125 "/>
</clipPath>
<clipPath id="clip175">
  <path d="M 81 120 L 103 120 L 103 139 L 81 139 Z M 81 120 "/>
</clipPath>
<clipPath id="clip176">
  <path d="M 117.640625 209.703125 L 64.707031 102.363281 L 162.714844 54.035156 L 215.644531 161.375 Z M 117.640625 209.703125 "/>
</clipPath>
<clipPath id="clip177">
  <path d="M 117.640625 209.703125 L 64.707031 102.363281 L 162.714844 54.035156 L 215.644531 161.375 Z M 117.640625 209.703125 "/>
</clipPath>
<clipPath id="clip178">
  <path d="M 84 129 L 106 129 L 106 149 L 84 149 Z M 84 129 "/>
</clipPath>
<clipPath id="clip179">
  <path d="M 117.640625 209.703125 L 64.707031 102.363281 L 162.714844 54.035156 L 215.644531 161.375 Z M 117.640625 209.703125 "/>
</clipPath>
<clipPath id="clip180">
  <path d="M 117.640625 209.703125 L 64.707031 102.363281 L 162.714844 54.035156 L 215.644531 161.375 Z M 117.640625 209.703125 "/>
</clipPath>
</defs>
<g id="surface1">
<g clip-path="url(#clip1)" clip-rule="nonzero">
<g clip-path="url(#clip2)" clip-rule="nonzero">
<g clip-path="url(#clip3)" clip-rule="nonzero">
<path style=" stroke:none;fill-rule:nonzero;fill:rgb(100%,74.899292%,0%);fill-opacity:1;" d="M 197.304688 242.199219 L 202.570312 242.238281 C 202.625 242.230469 202.679688 242.230469 202.738281 242.238281 L 245.332031 242.542969 L 263.808594 214.835938 C 263.8125 214.832031 263.8125 214.832031 263.8125 214.832031 C 263.816406 214.820312 263.824219 214.8125 263.832031 214.800781 L 270.554688 204.71875 C 270.554688 204.71875 270.554688 204.714844 270.554688 204.714844 C 270.5625 204.703125 270.574219 204.691406 270.578125 204.683594 L 275.453125 197.371094 L 259.542969 157.398438 C 259.535156 157.378906 259.527344 157.363281 259.519531 157.34375 L 257.402344 152.023438 L 209.367188 151.679688 L 179.253906 196.847656 L 197.304688 242.199219 "/>
</g>
</g>
</g>
<g clip-path="url(#clip4)" clip-rule="nonzero">
<g clip-path="url(#clip5)" clip-rule="nonzero">
<g clip-path="url(#clip6)" clip-rule="nonzero">
<path style=" stroke:none;fill-rule:nonzero;fill:rgb(100%,74.899292%,0%);fill-opacity:1;" d="M 290.320312 221.949219 L 292.863281 218.140625 L 271.453125 206.078125 L 268.910156 209.890625 L 290.320312 221.949219 "/>
</g>
</g>
</g>
<g clip-path="url(#clip7)" clip-rule="nonzero">
<g clip-path="url(#clip8)" clip-rule="nonzero">
<g clip-path="url(#clip9)" clip-rule="nonzero">
<path style=" stroke:none;fill-rule:nonzero;fill:rgb(100%,74.899292%,0%);fill-opacity:1;" d="M 280.203125 237.125 L 282.742188 233.316406 L 261.332031 221.253906 L 258.789062 225.066406 L 280.203125 237.125 "/>
</g>
</g>
</g>
<g clip-path="url(#clip10)" clip-rule="nonzero">
<g clip-path="url(#clip11)" clip-rule="nonzero">
<g clip-path="url(#clip12)" clip-rule="nonzero">
<path style=" stroke:none;fill-rule:nonzero;fill:rgb(100%,74.899292%,0%);fill-opacity:1;" d="M 286.945312 227.011719 L 289.488281 223.199219 L 268.078125 211.136719 L 265.539062 214.945312 L 286.945312 227.011719 "/>
</g>
</g>
</g>
<g clip-path="url(#clip13)" clip-rule="nonzero">
<g clip-path="url(#clip14)" clip-rule="nonzero">
<g clip-path="url(#clip15)" clip-rule="nonzero">
<path style=" stroke:none;fill-rule:nonzero;fill:rgb(100%,74.899292%,0%);fill-opacity:1;" d="M 259.445312 153.113281 L 260.847656 156.632812 L 280.195312 167.542969 L 279.394531 165.53125 L 259.445312 153.113281 "/>
</g>
</g>
</g>
<g clip-path="url(#clip16)" clip-rule="nonzero">
<g clip-path="url(#clip17)" clip-rule="nonzero">
<g clip-path="url(#clip18)" clip-rule="nonzero">
<path style=" stroke:none;fill-rule:nonzero;fill:rgb(100%,74.899292%,0%);fill-opacity:1;" d="M 293.695312 216.890625 L 296.230469 213.089844 L 274.824219 201.023438 L 272.285156 204.832031 L 293.695312 216.890625 "/>
</g>
</g>
</g>
<g clip-path="url(#clip19)" clip-rule="nonzero">
<g clip-path="url(#clip20)" clip-rule="nonzero">
<g clip-path="url(#clip21)" clip-rule="nonzero">
<path style=" stroke:none;fill-rule:nonzero;fill:rgb(100%,74.899292%,0%);fill-opacity:1;" d="M 283.574219 232.066406 L 286.113281 228.257812 L 264.707031 216.195312 L 262.164062 220.003906 L 283.574219 232.066406 "/>
</g>
</g>
</g>
<g clip-path="url(#clip22)" clip-rule="nonzero">
<g clip-path="url(#clip23)" clip-rule="nonzero">
<g clip-path="url(#clip24)" clip-rule="nonzero">
<path style=" stroke:none;fill-rule:nonzero;fill:rgb(100%,74.899292%,0%);fill-opacity:1;" d="M 273.453125 247.25 L 275.996094 243.429688 L 254.589844 231.367188 L 252.046875 235.179688 L 273.453125 247.25 "/>
</g>
</g>
</g>
<g clip-path="url(#clip25)" clip-rule="nonzero">
<g clip-path="url(#clip26)" clip-rule="nonzero">
<g clip-path="url(#clip27)" clip-rule="nonzero">
<path style=" stroke:none;fill-rule:nonzero;fill:rgb(100%,74.899292%,0%);fill-opacity:1;" d="M 247.847656 241.476562 L 246.355469 243.714844 C 246.21875 243.925781 245.980469 244.046875 245.730469 244.046875 L 243.0625 244.027344 L 264.789062 256.273438 L 267.421875 256.292969 L 269.253906 253.546875 L 247.847656 241.476562 "/>
</g>
</g>
</g>
<g clip-path="url(#clip28)" clip-rule="nonzero">
<g clip-path="url(#clip29)" clip-rule="nonzero">
<g clip-path="url(#clip30)" clip-rule="nonzero">
<path style=" stroke:none;fill-rule:nonzero;fill:rgb(100%,74.899292%,0%);fill-opacity:1;" d="M 270.085938 252.296875 L 272.617188 248.496094 L 251.214844 236.429688 L 248.679688 240.230469 L 270.085938 252.296875 "/>
</g>
</g>
</g>
<g clip-path="url(#clip31)" clip-rule="nonzero">
<g clip-path="url(#clip32)" clip-rule="nonzero">
<g clip-path="url(#clip33)" clip-rule="nonzero">
<path style=" stroke:none;fill-rule:nonzero;fill:rgb(100%,74.899292%,0%);fill-opacity:1;" d="M 276.832031 242.183594 L 279.367188 238.375 L 257.960938 226.3125 L 255.421875 230.121094 L 276.832031 242.183594 "/>
</g>
</g>
</g>
<g clip-path="url(#clip34)" clip-rule="nonzero">
<g clip-path="url(#clip35)" clip-rule="nonzero">
<g clip-path="url(#clip36)" clip-rule="nonzero">
<path style=" stroke:none;fill-rule:nonzero;fill:rgb(100%,74.899292%,0%);fill-opacity:1;" d="M 261.703125 256.253906 L 239.976562 244.003906 L 230.550781 243.9375 L 252.289062 256.183594 L 261.703125 256.253906 "/>
</g>
</g>
</g>
<g clip-path="url(#clip37)" clip-rule="nonzero">
<g clip-path="url(#clip38)" clip-rule="nonzero">
<g clip-path="url(#clip39)" clip-rule="nonzero">
<path style=" stroke:none;fill-rule:nonzero;fill:rgb(100%,74.899292%,0%);fill-opacity:1;" d="M 236.691406 256.074219 L 214.953125 243.824219 L 205.546875 243.757812 L 227.277344 256.007812 L 236.691406 256.074219 "/>
</g>
</g>
</g>
<g clip-path="url(#clip40)" clip-rule="nonzero">
<g clip-path="url(#clip41)" clip-rule="nonzero">
<g clip-path="url(#clip42)" clip-rule="nonzero">
<path style=" stroke:none;fill-rule:nonzero;fill:rgb(100%,74.899292%,0%);fill-opacity:1;" d="M 290.902344 194.449219 L 288.210938 187.6875 L 268.867188 176.785156 L 271.558594 183.546875 L 290.902344 194.449219 "/>
</g>
</g>
</g>
<g clip-path="url(#clip43)" clip-rule="nonzero">
<g clip-path="url(#clip44)" clip-rule="nonzero">
<g clip-path="url(#clip45)" clip-rule="nonzero">
<path style=" stroke:none;fill-rule:nonzero;fill:rgb(100%,74.899292%,0%);fill-opacity:1;" d="M 283.753906 176.488281 L 281.074219 169.757812 L 261.726562 158.847656 L 264.414062 165.59375 L 283.753906 176.488281 "/>
</g>
</g>
</g>
<g clip-path="url(#clip46)" clip-rule="nonzero">
<g clip-path="url(#clip47)" clip-rule="nonzero">
<g clip-path="url(#clip48)" clip-rule="nonzero">
<path style=" stroke:none;fill-rule:nonzero;fill:rgb(100%,74.899292%,0%);fill-opacity:1;" d="M 249.203125 256.164062 L 227.460938 243.914062 L 218.039062 243.847656 L 239.78125 256.09375 L 249.203125 256.164062 "/>
</g>
</g>
</g>
<g clip-path="url(#clip49)" clip-rule="nonzero">
<g clip-path="url(#clip50)" clip-rule="nonzero">
<g clip-path="url(#clip51)" clip-rule="nonzero">
<path style=" stroke:none;fill-rule:nonzero;fill:rgb(100%,74.899292%,0%);fill-opacity:1;" d="M 199.445312 243.714844 L 219.097656 255.945312 L 224.191406 255.984375 L 202.460938 243.734375 L 199.445312 243.714844 "/>
</g>
</g>
</g>
<g clip-path="url(#clip52)" clip-rule="nonzero">
<g clip-path="url(#clip53)" clip-rule="nonzero">
<g clip-path="url(#clip54)" clip-rule="nonzero">
<path style=" stroke:none;fill-rule:nonzero;fill:rgb(100%,74.899292%,0%);fill-opacity:1;" d="M 287.332031 185.472656 L 284.636719 178.703125 L 265.296875 167.808594 L 267.984375 174.570312 L 287.332031 185.472656 "/>
</g>
</g>
</g>
<g clip-path="url(#clip55)" clip-rule="nonzero">
<g clip-path="url(#clip56)" clip-rule="nonzero">
<g clip-path="url(#clip57)" clip-rule="nonzero">
<path style=" stroke:none;fill-rule:nonzero;fill:rgb(100%,74.899292%,0%);fill-opacity:1;" d="M 276.917969 197.882812 L 275.65625 199.773438 L 297.0625 211.84375 L 297.542969 211.125 L 295.359375 205.636719 L 276.011719 194.734375 L 276.988281 197.1875 C 277.082031 197.417969 277.054688 197.679688 276.917969 197.882812 "/>
</g>
</g>
</g>
<g clip-path="url(#clip58)" clip-rule="nonzero">
<g clip-path="url(#clip59)" clip-rule="nonzero">
<g clip-path="url(#clip60)" clip-rule="nonzero">
<path style=" stroke:none;fill-rule:nonzero;fill:rgb(100%,74.899292%,0%);fill-opacity:1;" d="M 294.476562 203.421875 L 291.785156 196.660156 L 272.441406 185.757812 L 275.132812 192.519531 L 294.476562 203.421875 "/>
</g>
</g>
</g>
<g clip-path="url(#clip61)" clip-rule="nonzero">
<g clip-path="url(#clip62)" clip-rule="nonzero">
<g clip-path="url(#clip63)" clip-rule="nonzero">
<path style=" stroke:none;fill-rule:nonzero;fill:rgb(100%,74.899292%,0%);fill-opacity:1;" d="M 184.539062 246.605469 L 180.847656 250.359375 C 180.804688 250.394531 180.761719 250.433594 180.726562 250.480469 L 150.847656 280.835938 L 118.183594 274.332031 C 118.183594 274.332031 118.183594 274.332031 118.179688 274.328125 C 118.167969 274.328125 118.15625 274.324219 118.144531 274.324219 L 106.257812 271.957031 C 106.257812 271.957031 106.257812 271.957031 106.257812 271.953125 C 106.242188 271.953125 106.230469 271.949219 106.214844 271.949219 L 97.601562 270.230469 L 80.554688 230.726562 C 80.546875 230.710938 80.542969 230.691406 80.53125 230.671875 L 78.265625 225.414062 L 111.964844 191.183594 L 165.203125 201.789062 L 184.539062 246.605469 "/>
</g>
</g>
</g>
<g clip-path="url(#clip64)" clip-rule="nonzero">
<g clip-path="url(#clip65)" clip-rule="nonzero">
<g clip-path="url(#clip66)" clip-rule="nonzero">
<path style=" stroke:none;fill-rule:nonzero;fill:rgb(100%,74.899292%,0%);fill-opacity:1;" d="M 104.488281 298.121094 L 99.992188 297.226562 L 106.589844 273.550781 L 111.082031 274.445312 L 104.488281 298.121094 "/>
</g>
</g>
</g>
<g clip-path="url(#clip67)" clip-rule="nonzero">
<g clip-path="url(#clip68)" clip-rule="nonzero">
<g clip-path="url(#clip69)" clip-rule="nonzero">
<path style=" stroke:none;fill-rule:nonzero;fill:rgb(100%,74.899292%,0%);fill-opacity:1;" d="M 122.375 301.679688 L 117.882812 300.785156 L 124.476562 277.113281 L 128.96875 278.007812 L 122.375 301.679688 "/>
</g>
</g>
</g>
<g clip-path="url(#clip70)" clip-rule="nonzero">
<g clip-path="url(#clip71)" clip-rule="nonzero">
<g clip-path="url(#clip72)" clip-rule="nonzero">
<path style=" stroke:none;fill-rule:nonzero;fill:rgb(100%,74.899292%,0%);fill-opacity:1;" d="M 110.449219 299.308594 L 105.957031 298.414062 L 112.550781 274.738281 L 117.039062 275.632812 L 110.449219 299.308594 "/>
</g>
</g>
</g>
<g clip-path="url(#clip73)" clip-rule="nonzero">
<g clip-path="url(#clip74)" clip-rule="nonzero">
<g clip-path="url(#clip75)" clip-rule="nonzero">
<path style=" stroke:none;fill-rule:nonzero;fill:rgb(100%,74.899292%,0%);fill-opacity:1;" d="M 77.59375 227.628906 L 79.09375 231.109375 L 73.144531 252.507812 L 72.285156 250.523438 L 77.59375 227.628906 "/>
</g>
</g>
</g>
<g clip-path="url(#clip76)" clip-rule="nonzero">
<g clip-path="url(#clip77)" clip-rule="nonzero">
<g clip-path="url(#clip78)" clip-rule="nonzero">
<path style=" stroke:none;fill-rule:nonzero;fill:rgb(100%,74.899292%,0%);fill-opacity:1;" d="M 98.523438 296.933594 L 94.042969 296.039062 L 100.628906 272.363281 L 105.117188 273.257812 L 98.523438 296.933594 "/>
</g>
</g>
</g>
<g clip-path="url(#clip79)" clip-rule="nonzero">
<g clip-path="url(#clip80)" clip-rule="nonzero">
<g clip-path="url(#clip81)" clip-rule="nonzero">
<path style=" stroke:none;fill-rule:nonzero;fill:rgb(100%,74.899292%,0%);fill-opacity:1;" d="M 116.410156 300.492188 L 111.921875 299.601562 L 118.511719 275.925781 L 123.003906 276.820312 L 116.410156 300.492188 "/>
</g>
</g>
</g>
<g clip-path="url(#clip82)" clip-rule="nonzero">
<g clip-path="url(#clip83)" clip-rule="nonzero">
<g clip-path="url(#clip84)" clip-rule="nonzero">
<path style=" stroke:none;fill-rule:nonzero;fill:rgb(100%,74.899292%,0%);fill-opacity:1;" d="M 134.308594 304.058594 L 129.804688 303.160156 L 136.398438 279.488281 L 140.890625 280.382812 L 134.308594 304.058594 "/>
</g>
</g>
</g>
<g clip-path="url(#clip85)" clip-rule="nonzero">
<g clip-path="url(#clip86)" clip-rule="nonzero">
<g clip-path="url(#clip87)" clip-rule="nonzero">
<path style=" stroke:none;fill-rule:nonzero;fill:rgb(100%,74.899292%,0%);fill-opacity:1;" d="M 148.316406 281.863281 L 150.953125 282.386719 C 151.199219 282.4375 151.453125 282.359375 151.628906 282.179688 L 153.5 280.277344 L 146.8125 304.308594 L 144.96875 306.179688 L 141.730469 305.535156 L 148.316406 281.863281 "/>
</g>
</g>
</g>
<g clip-path="url(#clip88)" clip-rule="nonzero">
<g clip-path="url(#clip89)" clip-rule="nonzero">
<g clip-path="url(#clip90)" clip-rule="nonzero">
<path style=" stroke:none;fill-rule:nonzero;fill:rgb(100%,74.899292%,0%);fill-opacity:1;" d="M 140.257812 305.242188 L 135.78125 304.347656 L 142.363281 280.675781 L 146.84375 281.570312 L 140.257812 305.242188 "/>
</g>
</g>
</g>
<g clip-path="url(#clip91)" clip-rule="nonzero">
<g clip-path="url(#clip92)" clip-rule="nonzero">
<g clip-path="url(#clip93)" clip-rule="nonzero">
<path style=" stroke:none;fill-rule:nonzero;fill:rgb(100%,74.899292%,0%);fill-opacity:1;" d="M 128.335938 302.867188 L 123.847656 301.972656 L 130.441406 278.300781 L 134.925781 279.195312 L 128.335938 302.867188 "/>
</g>
</g>
</g>
<g clip-path="url(#clip94)" clip-rule="nonzero">
<g clip-path="url(#clip95)" clip-rule="nonzero">
<g clip-path="url(#clip96)" clip-rule="nonzero">
<path style=" stroke:none;fill-rule:nonzero;fill:rgb(100%,74.899292%,0%);fill-opacity:1;" d="M 148.980469 302.105469 L 155.667969 278.078125 L 162.277344 271.359375 L 155.582031 295.398438 L 148.980469 302.105469 "/>
</g>
</g>
</g>
<g clip-path="url(#clip97)" clip-rule="nonzero">
<g clip-path="url(#clip98)" clip-rule="nonzero">
<g clip-path="url(#clip99)" clip-rule="nonzero">
<path style=" stroke:none;fill-rule:nonzero;fill:rgb(100%,74.899292%,0%);fill-opacity:1;" d="M 166.527344 284.28125 L 173.21875 260.246094 L 179.816406 253.542969 L 173.132812 277.574219 L 166.527344 284.28125 "/>
</g>
</g>
</g>
<g clip-path="url(#clip100)" clip-rule="nonzero">
<g clip-path="url(#clip101)" clip-rule="nonzero">
<g clip-path="url(#clip102)" clip-rule="nonzero">
<path style=" stroke:none;fill-rule:nonzero;fill:rgb(100%,74.899292%,0%);fill-opacity:1;" d="M 84.613281 279.097656 L 81.730469 272.417969 L 87.683594 251.023438 L 90.566406 257.707031 L 84.613281 279.097656 "/>
</g>
</g>
</g>
<g clip-path="url(#clip103)" clip-rule="nonzero">
<g clip-path="url(#clip104)" clip-rule="nonzero">
<g clip-path="url(#clip105)" clip-rule="nonzero">
<path style=" stroke:none;fill-rule:nonzero;fill:rgb(100%,74.899292%,0%);fill-opacity:1;" d="M 76.957031 261.351562 L 74.085938 254.699219 L 80.039062 233.296875 L 82.914062 239.964844 L 76.957031 261.351562 "/>
</g>
</g>
</g>
<g clip-path="url(#clip106)" clip-rule="nonzero">
<g clip-path="url(#clip107)" clip-rule="nonzero">
<g clip-path="url(#clip108)" clip-rule="nonzero">
<path style=" stroke:none;fill-rule:nonzero;fill:rgb(100%,74.899292%,0%);fill-opacity:1;" d="M 157.75 293.199219 L 164.445312 269.160156 L 171.054688 262.445312 L 164.359375 286.484375 L 157.75 293.199219 "/>
</g>
</g>
</g>
<g clip-path="url(#clip109)" clip-rule="nonzero">
<g clip-path="url(#clip110)" clip-rule="nonzero">
<g clip-path="url(#clip111)" clip-rule="nonzero">
<path style=" stroke:none;fill-rule:nonzero;fill:rgb(100%,74.899292%,0%);fill-opacity:1;" d="M 184.097656 249.195312 L 178.871094 271.742188 L 175.296875 275.375 L 181.984375 251.34375 L 184.097656 249.195312 "/>
</g>
</g>
</g>
<g clip-path="url(#clip112)" clip-rule="nonzero">
<g clip-path="url(#clip113)" clip-rule="nonzero">
<g clip-path="url(#clip114)" clip-rule="nonzero">
<path style=" stroke:none;fill-rule:nonzero;fill:rgb(100%,74.899292%,0%);fill-opacity:1;" d="M 80.789062 270.230469 L 77.902344 263.539062 L 83.859375 242.152344 L 86.742188 248.835938 L 80.789062 270.230469 "/>
</g>
</g>
</g>
<g clip-path="url(#clip115)" clip-rule="nonzero">
<g clip-path="url(#clip116)" clip-rule="nonzero">
<g clip-path="url(#clip117)" clip-rule="nonzero">
<path style=" stroke:none;fill-rule:nonzero;fill:rgb(100%,74.899292%,0%);fill-opacity:1;" d="M 96.925781 271.628906 L 99.15625 272.070312 L 92.570312 295.746094 L 91.722656 295.578125 L 89.382812 290.15625 L 95.335938 268.761719 L 96.382812 271.1875 C 96.484375 271.417969 96.683594 271.582031 96.925781 271.628906 "/>
</g>
</g>
</g>
<g clip-path="url(#clip118)" clip-rule="nonzero">
<g clip-path="url(#clip119)" clip-rule="nonzero">
<g clip-path="url(#clip120)" clip-rule="nonzero">
<path style=" stroke:none;fill-rule:nonzero;fill:rgb(100%,74.899292%,0%);fill-opacity:1;" d="M 88.441406 287.96875 L 85.558594 281.285156 L 91.511719 259.894531 L 94.394531 266.574219 L 88.441406 287.96875 "/>
</g>
</g>
</g>
<g clip-path="url(#clip121)" clip-rule="nonzero">
<g clip-path="url(#clip122)" clip-rule="nonzero">
<g clip-path="url(#clip123)" clip-rule="nonzero">
<path style=" stroke:none;fill-rule:nonzero;fill:rgb(100%,74.899292%,0%);fill-opacity:1;" d="M 183.488281 96.164062 L 178.238281 95.8125 C 178.183594 95.816406 178.125 95.8125 178.070312 95.800781 L 135.566406 92.957031 L 115.472656 119.515625 C 115.472656 119.515625 115.472656 119.515625 115.46875 119.519531 C 115.464844 119.527344 115.453125 119.539062 115.449219 119.546875 L 108.136719 129.210938 C 108.136719 129.210938 108.136719 129.210938 108.136719 129.214844 C 108.128906 129.226562 108.117188 129.234375 108.109375 129.246094 L 102.808594 136.25 L 116.308594 177.101562 C 116.3125 177.121094 116.320312 177.140625 116.324219 177.160156 L 118.121094 182.597656 L 166.054688 185.800781 L 198.804688 142.511719 L 183.488281 96.164062 "/>
</g>
</g>
</g>
<g clip-path="url(#clip124)" clip-rule="nonzero">
<g clip-path="url(#clip125)" clip-rule="nonzero">
<g clip-path="url(#clip126)" clip-rule="nonzero">
<path style=" stroke:none;fill-rule:nonzero;fill:rgb(100%,74.899292%,0%);fill-opacity:1;" d="M 89.433594 110.832031 L 86.667969 114.484375 L 107.320312 127.800781 L 110.085938 124.148438 L 89.433594 110.832031 "/>
</g>
</g>
</g>
<g clip-path="url(#clip127)" clip-rule="nonzero">
<g clip-path="url(#clip128)" clip-rule="nonzero">
<g clip-path="url(#clip129)" clip-rule="nonzero">
<path style=" stroke:none;fill-rule:nonzero;fill:rgb(100%,74.899292%,0%);fill-opacity:1;" d="M 100.4375 96.285156 L 97.675781 99.9375 L 118.328125 113.253906 L 121.09375 109.601562 L 100.4375 96.285156 "/>
</g>
</g>
</g>
<g clip-path="url(#clip130)" clip-rule="nonzero">
<g clip-path="url(#clip131)" clip-rule="nonzero">
<g clip-path="url(#clip132)" clip-rule="nonzero">
<path style=" stroke:none;fill-rule:nonzero;fill:rgb(100%,74.899292%,0%);fill-opacity:1;" d="M 93.101562 105.980469 L 90.335938 109.632812 L 110.992188 122.949219 L 113.753906 119.300781 L 93.101562 105.980469 "/>
</g>
</g>
</g>
<g clip-path="url(#clip133)" clip-rule="nonzero">
<g clip-path="url(#clip134)" clip-rule="nonzero">
<g clip-path="url(#clip135)" clip-rule="nonzero">
<path style=" stroke:none;fill-rule:nonzero;fill:rgb(100%,74.899292%,0%);fill-opacity:1;" d="M 116.148438 181.386719 L 114.960938 177.789062 L 96.296875 165.746094 L 96.976562 167.800781 L 116.148438 181.386719 "/>
</g>
</g>
</g>
<g clip-path="url(#clip136)" clip-rule="nonzero">
<g clip-path="url(#clip137)" clip-rule="nonzero">
<g clip-path="url(#clip138)" clip-rule="nonzero">
<path style=" stroke:none;fill-rule:nonzero;fill:rgb(100%,74.899292%,0%);fill-opacity:1;" d="M 85.761719 115.679688 L 83.003906 119.320312 L 103.65625 132.644531 L 106.417969 128.996094 L 85.761719 115.679688 "/>
</g>
</g>
</g>
<g clip-path="url(#clip139)" clip-rule="nonzero">
<g clip-path="url(#clip140)" clip-rule="nonzero">
<g clip-path="url(#clip141)" clip-rule="nonzero">
<path style=" stroke:none;fill-rule:nonzero;fill:rgb(100%,74.899292%,0%);fill-opacity:1;" d="M 96.769531 101.132812 L 94.007812 104.785156 L 114.65625 118.105469 L 117.421875 114.449219 L 96.769531 101.132812 "/>
</g>
</g>
</g>
<g clip-path="url(#clip142)" clip-rule="nonzero">
<g clip-path="url(#clip143)" clip-rule="nonzero">
<g clip-path="url(#clip144)" clip-rule="nonzero">
<path style=" stroke:none;fill-rule:nonzero;fill:rgb(100%,74.899292%,0%);fill-opacity:1;" d="M 107.78125 86.582031 L 105.011719 90.242188 L 125.660156 103.558594 L 128.425781 99.90625 L 107.78125 86.582031 "/>
</g>
</g>
</g>
<g clip-path="url(#clip145)" clip-rule="nonzero">
<g clip-path="url(#clip146)" clip-rule="nonzero">
<g clip-path="url(#clip147)" clip-rule="nonzero">
<path style=" stroke:none;fill-rule:nonzero;fill:rgb(100%,74.899292%,0%);fill-opacity:1;" d="M 132.996094 93.871094 L 134.617188 91.726562 C 134.769531 91.527344 135.007812 91.414062 135.261719 91.433594 L 137.921875 91.609375 L 116.964844 78.089844 L 114.339844 77.914062 L 112.347656 80.546875 L 132.996094 93.871094 "/>
</g>
</g>
</g>
<g clip-path="url(#clip148)" clip-rule="nonzero">
<g clip-path="url(#clip149)" clip-rule="nonzero">
<g clip-path="url(#clip150)" clip-rule="nonzero">
<path style=" stroke:none;fill-rule:nonzero;fill:rgb(100%,74.899292%,0%);fill-opacity:1;" d="M 111.441406 81.746094 L 108.6875 85.386719 L 129.332031 98.710938 L 132.089844 95.066406 L 111.441406 81.746094 "/>
</g>
</g>
</g>
<g clip-path="url(#clip151)" clip-rule="nonzero">
<g clip-path="url(#clip152)" clip-rule="nonzero">
<g clip-path="url(#clip153)" clip-rule="nonzero">
<path style=" stroke:none;fill-rule:nonzero;fill:rgb(100%,74.899292%,0%);fill-opacity:1;" d="M 104.105469 91.441406 L 101.34375 95.089844 L 121.996094 108.402344 L 124.757812 104.757812 L 104.105469 91.441406 "/>
</g>
</g>
</g>
<g clip-path="url(#clip154)" clip-rule="nonzero">
<g clip-path="url(#clip155)" clip-rule="nonzero">
<g clip-path="url(#clip156)" clip-rule="nonzero">
<path style=" stroke:none;fill-rule:nonzero;fill:rgb(100%,74.899292%,0%);fill-opacity:1;" d="M 120.042969 78.296875 L 141.003906 91.816406 L 150.40625 92.445312 L 129.4375 78.921875 L 120.042969 78.296875 "/>
</g>
</g>
</g>
<g clip-path="url(#clip157)" clip-rule="nonzero">
<g clip-path="url(#clip158)" clip-rule="nonzero">
<g clip-path="url(#clip159)" clip-rule="nonzero">
<path style=" stroke:none;fill-rule:nonzero;fill:rgb(100%,74.899292%,0%);fill-opacity:1;" d="M 145 79.964844 L 165.96875 93.488281 L 175.355469 94.117188 L 154.394531 80.59375 L 145 79.964844 "/>
</g>
</g>
</g>
<g clip-path="url(#clip160)" clip-rule="nonzero">
<g clip-path="url(#clip161)" clip-rule="nonzero">
<g clip-path="url(#clip162)" clip-rule="nonzero">
<path style=" stroke:none;fill-rule:nonzero;fill:rgb(100%,74.899292%,0%);fill-opacity:1;" d="M 87.210938 138.25 L 89.496094 145.160156 L 108.15625 157.195312 L 105.871094 150.285156 L 87.210938 138.25 "/>
</g>
</g>
</g>
<g clip-path="url(#clip163)" clip-rule="nonzero">
<g clip-path="url(#clip164)" clip-rule="nonzero">
<g clip-path="url(#clip165)" clip-rule="nonzero">
<path style=" stroke:none;fill-rule:nonzero;fill:rgb(100%,74.899292%,0%);fill-opacity:1;" d="M 93.277344 156.601562 L 95.550781 163.480469 L 114.210938 175.527344 L 111.933594 168.628906 L 93.277344 156.601562 "/>
</g>
</g>
</g>
<g clip-path="url(#clip166)" clip-rule="nonzero">
<g clip-path="url(#clip167)" clip-rule="nonzero">
<g clip-path="url(#clip168)" clip-rule="nonzero">
<path style=" stroke:none;fill-rule:nonzero;fill:rgb(100%,74.899292%,0%);fill-opacity:1;" d="M 132.515625 79.128906 L 153.488281 92.652344 L 162.890625 93.28125 L 141.917969 79.757812 L 132.515625 79.128906 "/>
</g>
</g>
</g>
<g clip-path="url(#clip169)" clip-rule="nonzero">
<g clip-path="url(#clip170)" clip-rule="nonzero">
<g clip-path="url(#clip171)" clip-rule="nonzero">
<path style=" stroke:none;fill-rule:nonzero;fill:rgb(100%,74.899292%,0%);fill-opacity:1;" d="M 181.441406 94.523438 L 162.554688 81.140625 L 157.472656 80.800781 L 178.433594 94.324219 L 181.441406 94.523438 "/>
</g>
</g>
</g>
<g clip-path="url(#clip172)" clip-rule="nonzero">
<g clip-path="url(#clip173)" clip-rule="nonzero">
<g clip-path="url(#clip174)" clip-rule="nonzero">
<path style=" stroke:none;fill-rule:nonzero;fill:rgb(100%,74.899292%,0%);fill-opacity:1;" d="M 90.242188 147.421875 L 92.527344 154.339844 L 111.1875 166.367188 L 108.902344 159.457031 L 90.242188 147.421875 "/>
</g>
</g>
</g>
<g clip-path="url(#clip175)" clip-rule="nonzero">
<g clip-path="url(#clip176)" clip-rule="nonzero">
<g clip-path="url(#clip177)" clip-rule="nonzero">
<path style=" stroke:none;fill-rule:nonzero;fill:rgb(100%,74.899292%,0%);fill-opacity:1;" d="M 101.375 135.65625 L 102.75 133.84375 L 82.101562 120.519531 L 81.578125 121.207031 L 83.429688 126.8125 L 102.09375 138.851562 L 101.265625 136.34375 C 101.1875 136.109375 101.226562 135.851562 101.375 135.65625 "/>
</g>
</g>
</g>
<g clip-path="url(#clip178)" clip-rule="nonzero">
<g clip-path="url(#clip179)" clip-rule="nonzero">
<g clip-path="url(#clip180)" clip-rule="nonzero">
<path style=" stroke:none;fill-rule:nonzero;fill:rgb(100%,74.899292%,0%);fill-opacity:1;" d="M 84.179688 129.078125 L 86.464844 135.988281 L 105.125 148.023438 L 102.839844 141.113281 L 84.179688 129.078125 "/>
</g>
</g>
</g>
</g>
</svg>
