<svg xmlns="http://www.w3.org/2000/svg" width="512" height="512" viewBox="0 0 512 512" data-svgdocument="" id="_lozZXmrQ4Bjc2v8Jjk5tP" class="fl-svgdocument" x="0" y="0" style="overflow: hidden;" xmlns:xlink="http://www.w3.org/1999/xlink">
  <defs id="_OCOhh_n_vN0Rio0Fz3bQR" transform="matrix(1.1005044718498647, 0, 0, 1.1005044718498647, -29.514457162095585, -26.39390524843904)">
    <linearGradient id="linearGradientSke8mc8dclee" x1="0" y1="0.5" x2="1" y2="0.5">
      <stop id="_BHsq4p1qAd5KargPr_mGY" offset="0%" stop-color="#ffc04a" />
      <stop id="_Fil-3fkmygADUM_R7pzLf" offset="100%" stop-color="#ff6347" />
    </linearGradient>
  </defs>
  <path id="_tMLbDoPeHYDf8vvgFsJ3A" fill="url('#linearGradientSke8mc8dclee')" d="M96.897,37.513c1.921,0,3.478-1.558,3.478-3.479c0-1.92-1.557-3.478-3.478-3.478s-3.478,1.558-3.478,3.478  c0,0.422,0.079,0.825,0.217,1.2l-10.153,8.649l-12.864-7.567c0.073-0.297,0.116-0.607,0.116-0.927c0-2.142-1.736-3.878-3.878-3.878  c-0.869,0-1.668,0.289-2.314,0.772L52.92,23.054c0.054-0.22,0.086-0.448,0.086-0.684c0-1.581-1.281-2.861-2.861-2.861  s-2.861,1.281-2.861,2.861c0,0.729,0.275,1.393,0.724,1.898l-5.835,12.488c-0.26-0.045-0.526-0.074-0.8-0.074  c-0.86,0-1.662,0.239-2.351,0.647l-15.438-6.915c0.036-0.225,0.06-0.454,0.06-0.689c0-2.38-1.929-4.309-4.309-4.309  c-2.379,0-4.309,1.929-4.309,4.309s1.929,4.309,4.309,4.309c1.352,0,2.556-0.623,3.346-1.596l14.682,6.576  c-0.384,0.674-0.607,1.452-0.607,2.284c0,0.852,0.293,1.605,0.694,2.29l-8.233,8.237c-1.136-0.811-2.506-1.294-4.003-1.294  c-2.642,0-4.915,1.501-6.082,3.684l-0.096-0.032c-0.001,0.012-0.004,0.023-0.005,0.035L7.553,49.002  c0.016-0.134,0.025-0.271,0.025-0.409c0-1.989-1.612-3.601-3.601-3.601s-3.601,1.612-3.601,3.601s1.612,3.601,3.601,3.601  c1.054,0,1.999-0.455,2.657-1.177l11.723,5.329c-0.005,0.013-0.009,0.025-0.015,0.037l0.056,0.019  c-0.054,0.348-0.108,0.694-0.108,1.055c0,1.954,0.813,3.716,2.115,4.975l-0.017,0.013c0.004,0.005,0.008,0.01,0.012,0.014  l-5.973,8.802c-0.155-0.027-0.314-0.044-0.478-0.044c-1.479,0-2.678,1.198-2.678,2.678c0,1.479,1.199,2.678,2.678,2.678  c1.479,0,2.678-1.199,2.678-2.678c0-0.501-0.14-0.969-0.38-1.37l5.364-7.904l0.71-0.877c0.881,0.407,1.859,0.641,2.894,0.641  c1.902,0,3.629-0.771,4.883-2.016l6.993,4.991c-0.199,0.514-0.334,1.06-0.334,1.641c0,2.548,2.065,4.617,4.617,4.617  c2.159,0,3.965-1.483,4.471-3.482l15.916-4.923c0.977,1.815,2.893,3.05,5.099,3.05c1.273,0,2.447-0.417,3.403-1.114l7.12,6.611  c-0.038,0.193-0.059,0.393-0.059,0.597c0,1.734,1.406,3.14,3.14,3.14s3.139-1.405,3.139-3.14c0-1.733-1.405-3.139-3.139-3.139  c-0.707,0-1.358,0.236-1.883,0.631l-6.811-6.323c0.552-0.887,0.893-1.93,0.893-3.05c0-2.815-1.661-5.16-4.661-5.677V39.104  c1-0.172,1.082-0.478,1.513-0.878l13.332,7.848l11.179,15.655c-0.092,0.23-0.146,0.481-0.146,0.745c0,1.125,0.91,2.037,2.035,2.037  s2.037-0.912,2.037-2.037s-0.913-2.037-2.038-2.037c-0.03,0-0.06,0.003-0.09,0.005L85.094,45.422l9.931-8.459  C95.565,37.31,96.207,37.513,96.897,37.513z M61.07,62.474c0,0.21,0.013,0.416,0.035,0.62l-15.275,4.724  c-0.522-1.975-2.316-3.435-4.458-3.435c-1.123,0-2.114,0.451-2.913,1.113l-7.038-5.022c0.447-0.92,0.717-1.93,0.717-3.017  c0-1.492-0.487-2.871-1.29-3.999l8.233-8.237c0.686,0.401,1.438,0.694,2.291,0.694c1.642,0,3.079-0.857,3.897-2.147l17.222,14.914  C61.609,59.699,61.07,61.022,61.07,62.474z M66,56.797c-1,0.1-1.135,0.273-1.596,0.502l-18.36-15.846  c0.002-0.052-0.023-0.102-0.023-0.154c0-1.485-0.718-2.802-1.806-3.646l5.799-12.428c0.046,0.002,0.088,0.007,0.134,0.007  c0.53,0,1.023-0.147,1.449-0.399l11.621,9.229c-0.151,0.415-0.113,0.861-0.113,1.328c0,1.757,0.895,3.238,2.895,3.715V56.797z" transform="matrix(2.9474455416671033, 0, 0, 2.9474455416671033, 110.08178150920851, 64.99370069289365)" />
  <path text="synergos" text-anchor="middle" font-size="100" letter-spacing="11" side="left" offset="0.5" dx="0" dy="0" space="preserve" font-family="Montserrat" font-scale="contain" transform="matrix(0.8892829418182373, 0, 0, 0.8892829418182373, 258.4985046386719, 278.0791015625)" x="0" y="0" fill="#3a3a3a" font-weight="700" data-fl-textpath="" id="_bACKzYL2clyS4dqlExFb0" d="M-219.52128226781616 35.96320829365635Q-224.5231923614489 32.50672230132042 -228.45022667978816 27.969707703307108Q-232.3690341723155 23.43837811514959 -233.92247685000527 19.6177870814047L-233.92247685000527 19.6177870814047L-224.2634450532816 13.94265670846336Q-222.75575506280126 17.512834700189444 -219.70538283867302 21.225250260746577Q-216.641098778877 24.93512400534763 -212.98838811839516 27.459268381329792L-212.98838811839516 27.459268381329792Q-205.60069853931253 32.56440723185227 -203.0765541633304 28.91169657137044L-203.0765541633304 28.91169657137044Q-201.8883871034649 27.192289976684165 -203.392308540356 25.059048238938672Q-204.89054496739132 22.917579675381305 -208.70593184906227 19.50307781666558L-208.70593184906227 19.50307781666558Q-213.11392279755268 15.363027599817158 -215.6515537012059 12.175108310245335Q-218.18918460485907 8.987189020673469 -218.84223884017246 4.901455284153272Q-219.48960806563 0.8074947218211861 -216.34579761536395-3.74193995215731L-216.34579761536395-3.74193995215731Q-213.7193230619771-7.542733477253265 -209.47361520615115-8.972581302365356Q-205.24181918599288-10.399887311521312 -199.8901405831829-9.120615592055188Q-194.541003796329-7.855255708256763 -188.7904525538137-3.881433819041618L-188.7904525538137-3.881433819041618Q-184.53718360906345-0.9422837235848931 -180.96745490707985 2.898072639337002Q-177.4034112149521 6.746655828070772 -175.77051470346237 10.293957476192148L-175.77051470346237 10.293957476192148L-185.37838141148364 15.895046416826432Q-188.6127986566836 9.24756229996288 -194.8734130995365 4.921269799687138L-194.8734130995365 4.921269799687138Q-198.60839201813727 2.34027532514682 -201.19787772912622 2.0945849659874654Q-203.77913661430335 1.8545796166839068 -204.91613858546648 3.4999447790630995L-204.91613858546648 3.4999447790630995Q-206.20095081288082 5.359207412551598 -204.70271438584552 7.50067597610898Q-203.21270478462213 9.636459529810551 -199.26361194776692 13.349997703291336L-199.26361194776692 13.349997703291336Q-194.91247109783467 17.572316178258717 -192.42614158706527 20.676163075880652Q-189.93412706644006 23.77178314769067 -189.32220696018618 27.829091834931788Q-188.71597186378813 31.894627347984795 -191.7574521366495 36.29597915734915L-191.7574521366495 36.29597915734915Q-194.332761601334 40.02273125013805 -198.5829517111285 41.38870490676737Q-202.83314182092295 42.75467856339671 -208.22789499080483 41.39701946183645Q-213.63087498649858 40.033675350420395 -219.52128226781616 35.96320829365635L-219.52128226781616 35.96320829365635ZM-133.69330365555936 23.71051998239968L-121.04538959895902 28.70954688939385L-160.5755101174612 68.76325547914487Q-166.79332623397897 75.38102419232695 -172.66125470017246 76.76070368975961Q-178.5235589846383 78.15335887907725 -185.01491487545232 75.58768183416406L-185.01491487545232 75.58768183416406Q-188.55819079866166 74.18721914918997 -191.58402819133082 71.72244571677773Q-194.60986558399995 69.25767228436547-196.04009361392852 66.45580723008348L-196.04009361392852 66.45580723008348L-187.53054092083624 58.99113624178895Q-186.53833577100662 60.94245091160815 -184.85886114771077 62.48798156148386Q-183.17571076933626 64.02421227455326 -181.24132391362087 64.78876933091709L-181.24132391362087 64.78876933091709Q-178.53504230298068 65.8584140588107 -176.33714803002195 65.22173457516502Q-174.13557800198458 64.57575515471302 -171.5887910094205 62.076960242258934L-171.5887910094205 62.076960242258934L-171.24300747648144 61.719002495662814L-172.83673767337615 8.239266856268479L-159.2495299993371 13.60954502620853L-158.68466582188478 49.424444557842435L-133.69330365555936 23.71051998239968ZM-85.16976090187882 34.693624557091354Q-76.25714610005349 36.375943609555605 -71.79281877913161 42.75468028476572Q-67.31866498103021 49.13527177701272 -69.30517402754533 59.65942883627944L-69.30517402754533 59.65942883627944L-74.48567801159459 87.10477959868088L-88.39014322061644 84.48021349147369L-83.61213453357352 59.16720827702824Q-82.53634065217412 53.46785151290621 -84.50178818322027 50.18635551219181Q-86.46723571426642 46.90485951147741 -91.18394476043636 46.01454733376755L-91.18394476043636 46.01454733376755Q-96.44111005147997 45.02222021902844 -100.17987423377998 47.684952347717015Q-103.91066675593738 50.35936577062202 -105.12186228103018 56.77605536884907L-105.12186228103018 56.77605536884907L-109.59568097402223 80.47751832585311L-123.50014618304408 77.85295221864592L-114.45049386003072 29.909570059764192L-101.17492319049819 32.41542787661007L-102.23402371856555 38.02634634611641Q-98.89167350657688 35.52284977922858 -94.48242326051826 34.64546031745452Q-90.07317301445967 33.76807085568048 -85.16976090187882 34.693624557091354L-85.16976090187882 34.693624557091354ZM-2.654757655839738 66.5355526525242Q-2.663611877671272 66.81541262243016 -3.055098287096203 70.3347930211986L-3.055098287096203 70.3347930211986L-39.94663932005525 69.16761685047746Q-39.090704310088164 73.7369685833508 -35.4557311506839 76.48328796215777Q-31.820757991279653 79.22960734096473 -26.293523585637182 79.40447822213753L-26.293523585637182 79.40447822213753Q-22.485428995131247 79.52495888348805 -19.500854980450914 78.4788145574532Q-16.526592186904054 77.44234900813531 -13.910388018874178 75.07389471235861L-13.910388018874178 75.07389471235861L-6.6425073723450545 83.47792415708376Q-13.77856095414071 91.14610120757898 -27.011939531121957 90.72742300383074L-27.011939531121957 90.72742300383074Q-35.26780864334742 90.46622345980049 -41.51280940979466 87.04703270363122Q-47.7478151773167 83.62815816967023 -51.01521070338507 77.8019221225959Q-54.28292245166172 71.98568107444676 -54.053345128458375 64.72931185474255L-54.053345128458375 64.72931185474255Q-53.82693002733772 57.57289262429045 -50.24648640080251 51.92328879417959Q-46.6660427742673 46.27368496406872 -40.62718986162848 43.24313130186214Q-34.57834195006445 40.21289386186384 -27.242012738958532 40.44500096273334L-27.242012738958532 40.44500096273334Q-20.075598509581226 40.671732286062266 -14.375895573104899 43.93360083582375Q-8.666513859911625 47.20578060671872 -5.540313207629295 53.067569538578134Q-2.4141125553469744 58.929358470437556 -2.654757655839738 66.5355526525242L-2.654757655839738 66.5355526525242ZM-27.49041551147953 51.142495812585054Q-32.28801499558149 50.9907091526159 -35.64239208477513 53.605944198169695Q-38.98677417504358 56.221495465931746 -39.86566597888708 60.91605073742838L-39.86566597888708 60.91605073742838L-15.847683561601636 61.67593270389896Q-16.42091260178835 57.025480202530225 -19.60199992085055 54.163455837067616Q-22.772776018779265 51.291752694888054 -27.49041551147953 51.142495812585054L-27.49041551147953 51.142495812585054ZM 25.93846289981079 46.13075024089838Q 28.1759523260151 42.39218887753628  32.320063608327295 40.220820258482206Q 36.46500469451564 38.0594171512327  42.06562232868679 37.59306737283539L 42.06562232868679 37.59306737283539L 43.149346190941046 50.60802578961033Q 40.782548935290606 50.6244802918998  39.97534247912003 50.6916944058681L 39.97534247912003 50.6916944058681Q 33.91631130193844 51.19621516256839  30.76034304725168 54.87077151339626Q 27.614340304369495 58.544498060347976  28.17860694015272 65.32104608745898L 28.17860694015272 65.32104608745898L 30.09047507080647 88.28158528519974L 15.98927586733286 89.45575776995454L 11.940662755588225 40.834025675433175L 25.404069203569033 39.71296063875209L 25.93846289981079 46.13075024089838ZM 90.34025485211964 29.609961310006014L 103.49267693830403 26.893586286772084L 111.7105709959358 66.6838252563679Q 114.42492340187766 79.82645402752162  108.90016528715606 87.63529822969502Q 103.3852004874651 95.44211981457642  90.24257171631139 98.15647222051828L 90.24257171631139 98.15647222051828Q 83.30890467459987 99.58848526329537  76.74225945589302 99.18839705847768Q 70.1735916198941 98.7785155386293  65.43040601489547 96.4293262494204L 65.43040601489547 96.4293262494204L 68.88906320842945 85.34058464283513Q 72.41914903005731 87.2051205346704  77.34498631834035 87.71944242741891Q 82.25900767430066 88.22599362242882  86.881452368775 87.27131826057743L 86.881452368775 87.27131826057743Q 94.06974560128381 85.78671716820683  96.82791953834567 81.83721384083609Q 99.57630016037689 77.8897331307574  98.21912395740596 71.31841874518054L 98.21912395740596 71.31841874518054L 97.79841956065789 69.28140921880203Q 93.60065172994817 76.3464814222164  83.9248564796502 78.34482730676973L 83.9248564796502 78.34482730676973Q 77.35354209407335 79.70200350974066  71.29220020580462 77.9415960246626Q 65.23288093482795 76.19098185461519  60.958159983579804 71.61093155041982Q 56.67162310000893 67.02311054848582  55.25983623015243 60.18737665708099L 55.25983623015243 60.18737665708099Q 53.848049360295924 53.35164276567614  55.96836312407265 47.45082336976688Q 58.078883572818704 41.55202659114967  62.946881258773196 37.53437820813483Q 67.8148789447277 33.516729825119995  74.38619333030454 32.159553622149055L 74.38619333030454 32.159553622149055Q 84.77690057784113 30.01355667527549  91.6043906596559 35.73078320417224L 91.6043906596559 35.73078320417224L 90.34025485211964 29.609961310006014ZM 84.32851932718796 66.40643309709826Q 89.83236237442223 65.26972217896164  92.6786761467601 61.30201529596238Q 95.51519660406731 57.33633103025516  94.43309635281628 52.09690748884888L 94.43309635281628 52.09690748884888Q 93.35099610156523 46.85748394744259  89.1755029969156 44.339993662848926Q 84.99021657723532 41.824525995547326  79.48637353000105 42.96123691368393L 79.48637353000105 42.96123691368393Q 73.98253048276678 44.09794783182055  71.09704345030624 48.07374518398804Q 68.21155641784571 52.04954253615555  69.29365666909675 57.28896607756184L 69.29365666909675 57.28896607756184Q 70.3757569203478 62.52838961896812  74.60021660015074 65.03576681710149Q 78.82467627995369 67.54314401523487  84.32851932718796 66.40643309709826L 84.32851932718796 66.40643309709826ZM 157.6514939560691 60.79139145736507Q 150.43383091053343 63.50237654790111  143.57242107522808 62.63990621683182Q 136.7110112399227 61.77743588576253  131.47005504991438 57.63578425695386Q 126.23261505327898 53.50349405881388  123.6798586645252 46.70709539336783L 123.6798586645252 46.70709539336783Q 121.13061846914437 39.92005815859044  122.34904944051036 33.352233102453816Q 123.57099660524929 26.793769476985858  128.16797790838189 21.627478457439103Q 132.76495921151448 16.46118743789234  139.98262225705014 13.750202347356307L 139.98262225705014 13.750202347356307Q 147.20028530258583 11.039217256820265  154.0148879845479 11.919268554754261Q 160.83885209717863 12.795803659315318  166.076292093814 16.928093857455302Q 171.3078868531537 21.0732616796369  173.85712704853452 27.860298914414287L 173.85712704853452 27.860298914414287Q 176.4098834372883 34.656697579860335  175.197297703218 41.21164501195535Q 173.978866731852 47.77947006809199  169.4193311513941 52.931696314146976Q 164.86915700160478 58.08040636682903  157.6514939560691 60.79139145736507L 157.6514939560691 60.79139145736507ZM 153.5691934500868 49.92277045105261Q 158.661811733837 48.00996125617374  160.6349918759572 43.337803282951675Q 162.6116882114504 38.675006740398274  160.44219690034697 32.899004017836006L 160.44219690034697 32.899004017836006Q 158.2762217826165 27.1323627259424  153.7151233180131 24.914507727031825Q 149.15754104678263 22.706014158789927  144.06492276303246 24.618823353668795L 144.06492276303246 24.618823353668795Q 138.97230447928226 26.531632548547655  136.9488009904458 31.212010057965742Q 134.9288136949823 35.9017489980525  137.09478881271278 41.6683902899461L 137.09478881271278 41.6683902899461Q 139.2642801238162 47.44439301250837  143.8686695483899 49.63530561388559Q 148.4765751663366 51.83557964593147  153.5691934500868 49.92277045105261L 153.5691934500868 49.92277045105261ZM 214.3839638235694 34.249355838795125Q 209.13012318574187 37.30934906628957  203.35466201024522 38.937276647704294Q 197.5878420200081 40.56017134552117  193.4692014123367 40.34360831811421L 193.4692014123367 40.34360831811421L 192.4344311194423 29.188643036189603Q 196.30693848767993 29.340256633685385  200.96350671252463 28.15570086574263Q 205.6236832390311 26.957471028942393  209.4603694942867 24.722870711495787L 209.4603694942867 24.722870711495787Q 217.22015385739383 20.203341240624056  214.9855535399472 16.366654985368427L 214.9855535399472 16.366654985368427Q 213.933680867996 14.560647266115211  211.363630955591 15.01599707422649Q 208.78854815958812 15.462705697078206  204.0767214974565 17.466374708173944L 204.0767214974565 17.466374708173944Q 198.45633318841806 19.69833242632727  194.4923906726334 20.641497168858805Q 190.5284481568487 21.584661911390384  186.55223697684949 20.4403522277604Q 182.57099291325244 19.287401358870852  179.7878082836399 14.508825910320468L 179.7878082836399 14.508825910320468Q 177.46261606143193 10.516598320392319  177.9716484993715 6.065600007976869Q 178.4770726356494 1.628275764418845  181.90845683784366-2.673189387936972Q 185.3261669711805-6.978262841954532  191.36635546763026-10.49624847685358L 191.36635546763026-10.49624847685358Q 195.83384824683557-13.09824929694345  200.82685094630034-14.698631764710953Q 205.82488652936297-16.290373047218893  209.72986861255612-16.261826069440005L 209.72986861255612-16.261826069440005L 210.71934295306983-5.184631454851683Q 203.32748289987668-5.080204667063796  196.75154091733268-1.2501802490978662L 196.75154091733268-1.2501802490978662Q 192.82844280948117 1.0347489043272589  191.50606997248275 3.2746440090070905Q 190.1923383207439 5.509506230089073  191.19891504031443 7.237743282006036L 191.19891504031443 7.237743282006036Q 192.33634673342914 9.190651150672181  194.91142952943204 8.74394252782048Q 197.4778711401753 8.302266788566627  202.5172100107388 6.304577186143945L 202.5172100107388 6.304577186143945Q 208.18792715575577 4.159031320586479  212.0539674698128 3.226597789397246Q 215.91497490027194 2.285523072948436  219.84798015397323 3.4549971745676658Q 223.78601829127234 4.633112461446501  226.47861101612355 9.256146575324337L 226.47861101612355 9.256146575324337Q 228.75850728595083 13.170603497916247  228.18974568898363 17.598527418425192Q 227.62098409201644 22.02645133893415  224.10033887335405 26.333614819034437Q 220.57105246943212 30.645811182732558  214.3839638235694 34.249355838795125L 214.3839638235694 34.249355838795125Z" path="M-237.25131008046594 21.328903791547816C-128.84419619819684 115.16733512751023 102.35448462255266 111.41410978951109 235.35000610351562 20.20000457763672"></path>
</svg>